<svg xmlns="http://www.w3.org/2000/svg" width="19.179" height="19.179" viewBox="0 0 19.179 19.179">
  <path id="Path_37" data-name="Path 37" d="M9.59,1.7a29.4,29.4,0,0,1,3.836.107,4.942,4.942,0,0,1,1.811.32,3.742,3.742,0,0,1,1.811,1.811,4.942,4.942,0,0,1,.32,1.811c0,.959.107,1.279.107,3.836a29.4,29.4,0,0,1-.107,3.836,4.942,4.942,0,0,1-.32,1.811,3.742,3.742,0,0,1-1.811,1.811,4.942,4.942,0,0,1-1.811.32c-.959,0-1.279.107-3.836.107a29.4,29.4,0,0,1-3.836-.107,4.942,4.942,0,0,1-1.811-.32,3.742,3.742,0,0,1-1.811-1.811,4.942,4.942,0,0,1-.32-1.811c0-.959-.107-1.279-.107-3.836a29.4,29.4,0,0,1,.107-3.836,4.942,4.942,0,0,1,.32-1.811,3.827,3.827,0,0,1,.746-1.066,1.8,1.8,0,0,1,1.066-.746,4.942,4.942,0,0,1,1.811-.32A29.4,29.4,0,0,1,9.59,1.7m0-1.7A31.483,31.483,0,0,0,5.647.107,6.578,6.578,0,0,0,3.3.533,4.171,4.171,0,0,0,1.6,1.6,4.171,4.171,0,0,0,.533,3.3,4.855,4.855,0,0,0,.107,5.647,31.483,31.483,0,0,0,0,9.59a31.483,31.483,0,0,0,.107,3.942,6.578,6.578,0,0,0,.426,2.344,4.171,4.171,0,0,0,1.066,1.7,4.171,4.171,0,0,0,1.7,1.066,6.578,6.578,0,0,0,2.344.426,31.484,31.484,0,0,0,3.942.107,31.484,31.484,0,0,0,3.942-.107,6.578,6.578,0,0,0,2.344-.426,4.47,4.47,0,0,0,2.77-2.77,6.578,6.578,0,0,0,.426-2.344c0-1.066.107-1.385.107-3.942a31.484,31.484,0,0,0-.107-3.942A6.578,6.578,0,0,0,18.647,3.3a4.171,4.171,0,0,0-1.066-1.7,4.171,4.171,0,0,0-1.7-1.066A6.578,6.578,0,0,0,13.532.107,31.483,31.483,0,0,0,9.59,0m0,4.688a4.822,4.822,0,0,0-4.9,4.9,4.9,4.9,0,1,0,4.9-4.9m0,8.1a3.139,3.139,0,0,1-3.2-3.2,3.139,3.139,0,0,1,3.2-3.2,3.139,3.139,0,0,1,3.2,3.2,3.139,3.139,0,0,1-3.2,3.2M14.7,3.3a1.172,1.172,0,1,0,1.172,1.172A1.182,1.182,0,0,0,14.7,3.3" fill="#fff" fill-rule="evenodd"/>
</svg>
