<?xml version="1.0" encoding="utf-8"?>
<!-- Generator: Adobe Illustrator 26.3.1, SVG Export Plug-In . SVG Version: 6.00 Build 0)  -->
<svg version="1.1" id="Layer_1" xmlns="http://www.w3.org/2000/svg" xmlns:xlink="http://www.w3.org/1999/xlink" x="0px" y="0px"
	 viewBox="0 0 595.28 595.28" style="enable-background:new 0 0 595.28 595.28;" xml:space="preserve">
<!--<style type="text/css">-->
<!--	.st0{fill:#FF6000;}-->
<!--	.st1{fill:#231F20;}-->
<!--</style>-->
<g>
	<polygon class="st0" fill ="#FF6000" points="496.06,99.21 400.15,99.21 99.21,496.06 195.13,496.06 	"/>
	<g>
		<path class="st1" fill = "#231F20" d="M411.83,454.07h-19.24l-42.94-46.46v46.46H335.1V347.24h14.55v46.46l43.41-46.46h18.77l-49.98,53.34
			L411.83,454.07z"/>
		<path class="st1" d="M496.06,435.3c0,3.13-1.02,5.71-3.05,7.74l-7.51,7.51c-2.35,2.35-5.08,3.52-8.21,3.52h-30.58
			c-3.18,0-5.89-1.17-8.13-3.52l-11.11-11.03l8.84-8.68l9.78,9.78c0.63,0.63,1.43,0.94,2.42,0.94h27.06c0.94,0,1.72-0.31,2.35-0.94
			l3.68-3.68c0.57-0.52,0.86-1.28,0.86-2.27v-32.54l-7.74,7.74c-2.35,2.35-5.06,3.52-8.13,3.52h-19.87c-3.08,0-5.79-1.17-8.13-3.52
			l-7.59-7.59c-2.03-2.03-3.05-4.59-3.05-7.66v-28.63c0-3.08,1.02-5.66,3.05-7.74l7.59-7.51c2.24-2.35,4.95-3.52,8.13-3.52h30.58
			c3.13,0,5.87,1.17,8.21,3.52l7.51,7.51c2.03,2.03,3.05,4.61,3.05,7.74V435.3z M482.45,384.39v-17.75c0-0.99-0.29-1.75-0.86-2.27
			l-3.68-3.68c-0.63-0.63-1.41-0.94-2.35-0.94h-27.06c-0.99,0-1.8,0.31-2.42,0.94l-3.68,3.68c-0.57,0.52-0.86,1.28-0.86,2.27v27.22
			c0,1.04,0.29,1.85,0.86,2.42l3.68,3.68c0.63,0.63,1.43,0.94,2.42,0.94h17.44c1.1,0,1.88-0.31,2.35-0.94l13.3-13.14
			C482.17,386.29,482.45,385.48,482.45,384.39z"/>
	</g>
	<g>
		<path class="st1" d="M356.59,491.06l-4.09,4.09c-0.59,0.61-1.31,0.91-2.16,0.91h-8.46c-0.85,0-1.58-0.3-2.18-0.91l-3.56-3.56
			c-0.61-0.64-0.91-1.36-0.91-2.16v-15.68c0-0.81,0.3-1.53,0.91-2.16l3.56-3.56c0.61-0.61,1.34-0.91,2.18-0.91h8.46
			c0.85,0,1.57,0.3,2.16,0.91l4.09,4.09l-2.69,2.67l-3.6-3.6c-0.17-0.17-0.37-0.25-0.61-0.25h-7.16c-0.23,0-0.42,0.08-0.59,0.25
			l-2.48,2.48c-0.17,0.17-0.25,0.37-0.25,0.61v14.62c0,0.24,0.08,0.45,0.25,0.61l2.48,2.46c0.17,0.18,0.37,0.28,0.59,0.28h7.16
			c0.24,0,0.45-0.09,0.61-0.28l3.56-3.58L356.59,491.06z"/>
		<path class="st1" d="M401.2,496.06h-4.03l-2.95-7.78h-12.99l-2.95,7.78h-3.94l10.85-28.95h5.19L401.2,496.06z M392.79,484.64
			l-5.02-13.97l-5.13,13.97H392.79z"/>
		<path class="st1" d="M450.14,496.06h-3.86V470.8l-8.22,25.26h-3.98l-8.16-25.26v25.26h-3.9v-28.95h6.46l7.59,23.53l7.61-23.53
			h6.46V496.06z"/>
		<path class="st1" d="M495.94,478.18c0,0.85-0.3,1.58-0.91,2.18l-2.56,2.54c-0.55,0.58-1.24,0.87-2.08,0.87h-11.85v12.29h-3.94
			v-28.95h15.75c0.83,0,1.53,0.29,2.08,0.87l2.56,2.56c0.64,0.61,0.95,1.33,0.95,2.16V478.18z M491.95,477.67l0.04-4.43
			c0-0.24-0.08-0.45-0.25-0.61l-1.44-1.44c-0.17-0.17-0.37-0.25-0.61-0.25h-11.15v9.03h11.1c0.28,0,0.49-0.08,0.61-0.25l1.44-1.44
			C491.87,478.09,491.95,477.89,491.95,477.67z"/>
	</g>
	<g>
		<path class="st1" d="M246.51,103.59h-9.94v28.82h-4.54v-28.82h-9.94v-4.37h24.42V103.59z"/>
		<path class="st1" d="M278.67,132.41h-4.52v-14.44h-15.43v14.44h-4.52v-33.2h4.52v14.39h15.38V99.21h4.57V132.41z"/>
		<path class="st1" d="M311.96,132.41h-21.44v-33.2h21.44v4.37h-16.91v10.01h16.91v4.37h-16.91v10.06h16.91V132.41z"/>
		<path class="st1" d="M123.64,178.23c0,0.96-0.33,1.78-1,2.48l-2.94,2.89c-0.68,0.7-1.49,1.04-2.43,1.04H99.21v-33.2h18.01
			c0.97,0,1.8,0.35,2.48,1.04l2.94,2.94c0.66,0.65,1,1.46,1,2.43v4.84c0,0.97-0.35,1.8-1.04,2.48l-2.89,2.84l2.89,2.89
			c0.7,0.68,1.04,1.49,1.04,2.43V178.23z M119.12,162.24l0.05-3.77c0-0.28-0.1-0.51-0.29-0.7l-1.65-1.65
			c-0.19-0.19-0.43-0.29-0.7-0.29h-12.78v10.11h11.74c0.28,0,0.51-0.1,0.71-0.29l2.65-2.65
			C119.02,162.8,119.12,162.55,119.12,162.24z M119.17,177.63v-3.72c0-0.28-0.1-0.51-0.29-0.71l-2.7-2.7
			c-0.23-0.23-0.46-0.34-0.71-0.34h-11.74v10.11h12.73c0.32,0,0.56-0.11,0.71-0.32l1.65-1.63
			C119.05,178.1,119.17,177.87,119.17,177.63z"/>
		<path class="st1" d="M160.38,184.65h-4.62l-3.38-8.92h-14.9l-3.38,8.92h-4.52l12.44-33.2h5.95L160.38,184.65z M150.74,171.55
			l-5.76-16.02l-5.88,16.02H150.74z"/>
		<path class="st1" d="M194.94,184.65h-5.49L180,171.02c-0.26-0.31-0.54-0.46-0.85-0.46h-6.56v14.1h-4.52v-33.2h18.06
			c0.96,0,1.75,0.33,2.38,1l2.94,2.94c0.73,0.7,1.09,1.52,1.09,2.48v6.27c0,0.97-0.35,1.81-1.04,2.5l-2.94,2.92
			c-0.63,0.66-1.43,1-2.38,1h-1.24L194.94,184.65z M187.97,163.55l0.05-5.08c0-0.28-0.1-0.51-0.29-0.7l-1.65-1.65
			c-0.19-0.19-0.43-0.29-0.7-0.29h-12.78v10.35h12.73c0.32,0,0.56-0.1,0.71-0.29l1.65-1.65
			C187.87,164.04,187.97,163.81,187.97,163.55z"/>
		<path class="st1" d="M227.85,184.65h-5.98l-13.34-14.44v14.44h-4.52v-33.2h4.52v14.44l13.49-14.44h5.83l-15.53,16.58
			L227.85,184.65z"/>
		<path class="st1" d="M255.7,184.65h-21.44v-33.2h4.52v28.82h16.91V184.65z"/>
		<path class="st1" d="M284.28,184.65h-21.44v-33.2h21.44v4.37h-16.91v10.01h16.91v4.37h-16.91v10.06h16.91V184.65z"/>
		<path class="st1" d="M315.46,151.45l-11.54,18.52v14.68h-4.54v-14.68l-11.59-18.52h5.08l8.8,14.1l8.82-14.1H315.46z"/>
	</g>
</g>
</svg>
