<?xml version="1.0" encoding="utf-8"?>
<!-- Generator: Adobe Illustrator 27.0.1, SVG Export Plug-In . SVG Version: 6.00 Build 0)  -->
<svg version="1.1" id="Layer_1" xmlns="http://www.w3.org/2000/svg" xmlns:xlink="http://www.w3.org/1999/xlink" x="0px" y="0px"
	 viewBox="0 0 595.3 595.3" style="enable-background:new 0 0 595.3 595.3;" xml:space="preserve">

<rect style="fill:#FFD600;opacity:0;" width="595.3" height="595.3"/>
<g>
	<polygon style="fill:#FF5100;" points="92.1,273.7 92.1,198.1 66.4,198.1 66.4,178.5 141.6,178.5 141.6,198.1 115.9,198.1 115.9,273.7 	"/>
	<path style="fill:#FF5100;" d="M192.8,273.7v-41.8c0-5-0.6-8.3-2-10.1c-1.4-1.8-3.5-2.8-6.4-2.8c-2.6,0-4.7,0.6-6.5,1.6
		c-1.6,1-3.5,2.5-5.5,4.3l-0.3,0.3v48.5h-23.8V171.6h23.8v23.3l-1.4,15.1l1.8-1.6c2.5-2.2,5.6-4.4,9.2-6.4c3.5-2,7.7-2.9,12.6-2.9
		c8,0,13.6,2.6,17.1,7.9c3.5,5.4,5.3,12.6,5.3,21.7v45.1H192.8z"/>
	<path style="fill:#FF5100;" d="M261.5,275.5c-7.1,0-13.5-1.5-19.2-4.5c-5.6-3-10.2-7.4-13.5-13c-3.3-5.7-5-12.6-5-20.7c0-7.9,1.7-14.7,5-20.4
		c3.3-5.7,7.7-10.1,13-13.2c5.3-3.1,11-4.7,16.9-4.7c7.1,0,13.1,1.6,17.8,4.7c4.7,3.1,8.2,7.4,10.4,12.7c2.3,5.3,3.4,11.3,3.4,17.9
		c0,2.1-0.1,4.2-0.4,6.2c-0.2,1.5-0.4,2.7-0.5,3.6h-43.6l0.3,1.2c0.5,1.8,1.2,3.4,2,4.7c2,3,4.6,5.1,7.6,6.3c3,1.1,6.1,1.7,9.1,1.7
		c2.7,0,5.3-0.4,7.8-1.2c2.2-0.7,4.6-1.7,7.1-3l7.5,13.7c-3.7,2.5-7.9,4.5-12.5,5.8C270.1,274.8,265.5,275.5,261.5,275.5
		 M259.4,216.6c-2.4,0-4.6,0.6-6.8,1.9c-2.1,1.3-3.9,3.5-5.3,6.5c-0.4,0.9-0.7,1.8-1,3l-0.3,1.2h24.5v-0.9c0-3.1-0.8-5.8-2.3-8.1
		C266.5,217.9,263.6,216.6,259.4,216.6"/>
	<path style="fill:#FF5100;" d="M66.4,391v-95.3h34c6.7,0,12.8,0.7,18.3,2.1c5.4,1.3,9.7,3.7,12.8,7.1c3.1,3.3,4.7,8.1,4.7,14.2
		c0,4-1.1,8.1-3.2,12c-2.1,3.9-4.9,6.6-8.5,8l-0.6,0.2l-2.6,1.1l2.6,0.8l0.7,0.2c4.5,1.2,8.3,3.7,11.4,7.2c3.1,3.5,4.6,8.4,4.6,14.6
		c0,6.4-1.7,11.7-5,15.8c-3.4,4.1-7.9,7.1-13.5,9c-5.6,2-12,2.9-18.8,2.9H66.4z M90.2,373.1h11.4c5.3,0,9.2-1,11.8-2.9
		c2.7-2,4-4.9,4-8.8c0-3.9-1.4-6.7-4.1-8.4c-2.6-1.6-6.5-2.4-11.8-2.4H90.2V373.1z M90.2,333.7h9.6c4.4,0,7.7-1,9.9-2.9
		c2.2-2,3.3-4.6,3.3-7.9c0-3.3-1.1-5.7-3.4-7.2c-2.2-1.4-5.4-2.1-9.8-2.1h-9.6V333.7z"/>
	<path style="fill:#FF5100;" d="M166.7,392.8c-4.5,0-8.4-1-11.5-3.1c-3.2-2-5.7-4.8-7.4-8.1c-1.7-3.3-2.6-7-2.6-10.9c0-7.5,3-13.3,9.2-17.5
		c6.2-4.3,16.5-7.3,30.6-8.7l0.9-0.1l-0.1-0.9c-0.2-1.9-0.8-3.6-1.7-4.8c-0.9-1.3-2.2-2.3-3.9-2.9c-1.6-0.6-3.6-0.9-5.8-0.9
		c-2.8,0-5.8,0.5-8.8,1.6c-2.8,1-6,2.4-9.6,4.3l-8.1-15.1c3.2-1.9,6.5-3.5,9.7-4.9c3.5-1.5,7.1-2.6,10.7-3.3
		c3.6-0.7,7.4-1.1,11.2-1.1c6.3,0,11.7,1.2,16.2,3.6c4.4,2.3,7.9,6,10.3,10.9c2.4,5,3.6,11.6,3.6,19.5V391h-19.3l-1.8-7.2l-0.4-1.3
		l-1.3,1.3l-0.3,0.2c-2.9,2.6-6,4.8-9.3,6.4C174.3,392,170.7,392.8,166.7,392.8 M184.8,357.8c-4.1,0.6-7.5,1.4-9.9,2.5
		c-2.5,1.1-4.3,2.3-5.4,3.7c-1.1,1.5-1.7,3-1.7,4.6c0,2,0.7,3.6,2.1,4.7c1.4,1.1,3.3,1.6,5.7,1.6c2.3,0,4.2-0.5,5.8-1.6
		c1.5-1,2.9-2.3,4.2-3.8l0.2-0.3v-11.6L184.8,357.8z"/>
	<path style="fill:#FF5100;" d="M220.9,391v-72.8H240l2.4,15.9l1.4-3l0.3-0.5c2.7-4.9,5.9-8.5,9.6-10.8c3.7-2.2,7.3-3.4,10.8-3.4
		c2.2,0,4,0.1,5.4,0.4c1.1,0.2,2,0.4,2.8,0.8l-3.9,20.4c-1-0.2-2-0.4-3-0.6c-1.4-0.3-2.9-0.4-4.7-0.4c-2.9,0-5.9,1-8.9,2.9
		c-3.1,1.9-7.6,5.4-9.4,10.2l-0.1,0.2V391H220.9z"/>
	<polygon style="fill:#FF5100;" points="323.2,391 307.9,363.7 299.1,373.6 299.1,391 275.8,391 275.8,288.8 299.1,288.8 299.1,344.1 
		299.1,346.5 301,344.1 321.7,318.1 347,318.1 321.3,348.2 348.8,391 	"/>
	<path style="fill:#FF5100;" d="M375.3,392.8c-5.6,0-10-1.1-13.1-3.3c-3.2-2.2-5.5-5.4-6.8-9.4c-1.4-4.1-2.1-9-2.1-14.4v-76.8h23.8v77.7
		c0,2.8,0.6,4.7,1.7,5.8c1.1,1.1,2.3,1.7,3.4,1.7c0.6,0,1,0,1.4-0.1c0.1,0,0.3,0,0.5-0.1l2.7,17.2c-1.1,0.4-2.5,0.8-4.2,1.2
		C380.6,392.6,378.1,392.8,375.3,392.8"/>
	<path style="fill:#FF5100;" d="M424,392.8c-7.1,0-13.5-1.5-19.2-4.5c-5.6-3-10.2-7.4-13.5-13c-3.3-5.7-5-12.6-5-20.7c0-7.9,1.7-14.7,5-20.4
		c3.3-5.7,7.7-10.1,13-13.2c5.3-3.1,11-4.7,16.9-4.7c7.1,0,13.1,1.6,17.8,4.7c4.7,3.1,8.2,7.4,10.4,12.7c2.3,5.3,3.4,11.3,3.4,17.9
		c0,2.1-0.1,4.2-0.4,6.2c-0.2,1.5-0.4,2.7-0.5,3.6h-43.6l0.3,1.2c0.5,1.8,1.2,3.4,2,4.7c2,3,4.6,5.1,7.6,6.3c3,1.1,6,1.7,9.1,1.7
		c2.7,0,5.3-0.4,7.8-1.2c2.2-0.7,4.6-1.7,7.1-3l7.5,13.7c-3.7,2.5-7.9,4.5-12.5,5.8C432.6,392,428.1,392.8,424,392.8 M421.9,333.9
		c-2.4,0-4.6,0.6-6.8,1.9c-2.1,1.3-3.9,3.5-5.3,6.5c-0.4,0.9-0.7,1.8-1,3l-0.3,1.2H433v-0.9c0-3.1-0.8-5.8-2.3-8.1
		C429,335.1,426.1,333.9,421.9,333.9"/>
	<path style="fill:#FF5100;" d="M470,419c-2.4,0-4.5-0.1-6.1-0.4c-1.4-0.2-2.7-0.5-4.1-0.8l4.1-17.7c0.4,0.1,0.9,0.2,1.4,0.4
		c1,0.3,1.9,0.4,2.6,0.4c3.7,0,6.5-0.8,8.5-2.3c1.9-1.5,3.3-3.5,4-5.8l1-3.6l-28-71h23.7l15.4,49.7l13.2-49.7h22.5l-24.7,72.3
		c-2.5,6.5-5.3,12-8.2,16.3c-2.8,4.2-6.3,7.3-10.3,9.3C481.1,418,476,419,470,419"/>
	<path style="fill-rule:evenodd;clip-rule:evenodd;fill:#FF5100;" d="M522.2,184.6l-4.3,7l0.8-0.2l-1.6,1.5l-1.8,3l1-0.4l-1.3,1.4l-1.2,0.7l-0.4,1.1l-0.5,0.5l-0.5,0.2l-0.9,0.6
		l-0.6,0.8l-0.1,0.6l0,0.7c0,0,0.1,0.6-0.2,0.7c-0.2,0.2-0.6,0.5-0.6,0.8c-0.1,0.3-0.2,0.9-0.2,0.9s-0.3,0.4-1,1.2
		c-0.7,0.8-0.7,0.6-1.2,1.6c-0.5,1-0.7,1.8-0.7,1.8l-1.6,2.1l1.1-0.9l-1.3,1.8l-0.8,0c0,0-1,1.1-1.4,1.5c-0.4,0.4-0.2,0.9-0.5,1.4
		c-0.3,0.5-0.3,2.1-0.6,2.2c-0.3,0.1-0.6,0.3-1,0.6c-0.5,0.3-1.5,1.7-1.7,1.9c-0.2,0.2-0.2,0.6-0.7,1.1c-0.5,0.6-0.5,1.5-0.5,1.5
		l-1.2,1.1l-1.2,1.5l-1.3,1.4c0,0,0.2,0.4-0.3,0c-0.5-0.4-0.6-1.1-1.2-0.1c-0.6,1-1,2.8-1,2.8l0.7-0.6l-1.4,1.7l-0.7,0.5
		c0,0,0.2-0.5-0.3,0.4c-0.6,0.9-0.7,1.2-1.1,1.4c-0.4,0.2-2.1,2-2.3,2.1c-0.2,0-0.3,0.4-0.8,1c-0.5,0.6,0.4,0.8-0.2,1.1
		c-0.6,0.2-1.1,0.9-1.4,1.1c-0.3,0.1-0.1,0.4-0.7,1.2c-0.6,0.8-0.7,0.7-1,0.6c-0.3,0-0.4,0.3-0.5,0.8c-0.1,0.6-0.1,1.1-0.3,1.2
		c-0.2,0.1-0.1,1-0.1,1l-0.8,0.2c0,0-0.7,0.4-0.9,0.4c-0.2,0,0.6,0.1,0.6,0.2c-0.1,0-1.2,0.8-1.3,0.8c-0.1,0.1-0.5,0.7-0.5,0.7
		s-0.6,0.4-0.8,0.5c-0.2,0.1-0.2,0.4-0.9,1.2c-0.7,0.7-0.8,1.2-1,1.1c-0.2-0.1-0.3,0.2-0.5,0.5c-0.2,0.3-1,1.3-1,1.3l1.1-0.5
		c0,0-0.9,0.9-1,0.9c-0.1,0-0.8,0.5-0.9,0.5c-0.1,0-0.6,0.3-0.6,0.3s0.3,0.6-0.4,1.2c-0.7,0.6-1,0.9-1.1,1.2c-0.1,0.3,0,0.3-0.6,0.7
		c-0.6,0.4,0.3,0.5-0.2,0.8c-0.5,0.3-0.9,0.5-1,0.5c-0.2,0-1.2,0.7-1.2,0.7l0.8,0c0,0-0.6,0.3-0.7,0.5c-0.2,0.1-0.6,0.5-0.7,0.5
		c-0.1,0-0.4,0.4-0.4,0.4s-1,1.7-1.5,2c-0.5,0.3-0.5,0.5-0.8,1.1c-0.4,0.6-0.1,1-0.7,1.3c-0.5,0.4-0.2,0.4-0.6,0.8
		c-0.4,0.4-0.4,0.7-0.5,0.7c-0.1,0-1.2,2.3-1.5,2.3c-0.3,0-0.5,0.4-1.3,1.3c-0.7,0.8-0.3,1.3-1,1.3c-0.7,0-0.5,0.7-1,1
		c-0.5,0.3-0.7,0.7-1.1,0.8c-0.4,0.1,0.9,0,0.9,0l-1.6,0.5l-0.6,0.3c0,0,0,0.1-0.6,0.3c-0.6,0.2-0.6,0.4-0.7,0.7
		c0,0.3-0.4,0.8-0.5,0.8c-0.1,0,0.3-0.3-0.3-0.1c-0.6,0.2-0.8,0.2-1.5,0.9c-0.7,0.7-0.6,0.9-0.9,1.1c-0.3,0.2,0.7-0.2,0.7-0.2
		s-0.8,0.5-0.9,0.5c-0.1,0-0.7,0.7-0.8,0.7c-0.1,0,0.5,0.3-0.6,1c-1.1,0.8-0.9,0.5-1.2,1.2c-0.4,0.7-1.9,2.6-2.1,2.7
		c-0.2,0,0.1,0.2-0.2,0.9c-0.4,0.7,0.1,0.7,0.1,0.7S446,282,446,282c-0.1,0,0.2-0.8-0.7,0.4c-0.8,1.2-0.6,1.3-1,1.5
		c-0.4,0.2-0.6,0.4-0.7,0.4c-0.1,0-1.6,0.7-2.7,2.9c-1.1,2.2-0.6,1.6-2.4,3.1c-1.8,1.6-3.4,4.4-3.7,4.3c-0.3-0.1-5.3,6.3-5.6,6
		c-0.2-0.2,6.7-9.2,6.7-9.2c0,0,7.2-11.1,7.2-11.1c0.3-1.7,0.2-0.9,1.7-2.1c1.5-1.2,2.5-2.8,2.4-3.2c-0.1-0.5,0.3-2.2,1.1-2.9
		c0.9-0.7,1,0,1.3-0.2c0.3-0.2,0.8-0.6,0.8-0.6l1.2-2.1l0.1,0.7l0.7-1.8c0,0,0.9-1.4,1.7-2c0.8-0.6,1.3-0.9,1.4-1.9
		c0.1-1.1,0.5-1.5,0.5-1.5s0.9-0.6,1.8-2c0.9-1.4,1.1-0.4,1.4-1.6c0.3-1.2,1.9-1.8,2.6-1.9c0.7-0.1,1.5-0.8,1.6-1.6
		c0.1-0.9,1.3-2.1,1.3-2.1l-1.3,0.4c0,0,1.1-2.5,1.8-3c0.7-0.5,1.3-1,1.3-1.2c0.1-0.2,0.1-0.5,0.2-0.6c0.1-0.1-0.8-0.5,1.5-2.4
		c2.3-1.9,3-3.9,3.1-4c0.1-0.2,0.7,0.4,0.7,0.4l1.2-3c0,0-0.3,0.3,0.7-0.7c1-0.9,0.9-1.2,0.9-1.5c0-0.3,0.5-1.6,0.9-1.9
		c0.4-0.3,0.9,0.5,0.9,0.5s1,0.4,1.6-1.6c0.7-2,1.3-2.1,1.4-1.9c0.2,0.2,0.8,0.4,1.2-0.7c0.4-1,0.4-2.1,1.3-2.7
		c0.9-0.5,1.2-0.1,1.4-1c0.2-0.8,2.3-2.5,2.3-2.5l1.4-1.8l1.3-2.9l0.4,1.1l1-1.7c0,0,0.3-0.1,1.2-1.6c0.9-1.6,0.4-1.6,1.6-2.5
		c1.2-0.9,1,1.1,1.9-0.8c0.8-2,1.2-2.1,1.2-2.3c0-0.3,0.5-1.9,1.2-1.1c0.7,0.8,1.4-1.3,1.4-1.5c0-0.3,1.8-2.1,1.8-2.1l-0.4,2.1
		c0,0,1.5-3,1.5-3.3c0-0.3-0.2-0.7,1.5-2.2c1.7-1.5,2.9-1.1,3.1-3.1c0.2-2,1.7-2.7,1.7-2.7l-0.3,1.3l1.2-1.5c0,0,0.4-1,1.2-2
		c0.8-1,1.4-1.5,2-2c0.6-0.5,1.9-0.1,1.7-0.9c-0.2-0.8,0.7-1.5,0.7-1.5L522.2,184.6z"/>
	<path style="fill-rule:evenodd;clip-rule:evenodd;fill:#FF5100;" d="M529.5,143.5l-11.1,16.4c0,0-0.5,1.6-0.8,1.8c-0.2,0.2-0.5,0.5-1,1c-0.5,0.5-0.6,1.3-1.3,2
		c-0.7,0.8,0.6,0.3-0.7,1.2c-1.3,0.9-1.2,1-1.2,1.4c0,0.4-0.7,1.3-1.3,1.6c-0.7,0.3,0.4,0.8-0.6,1.3c-1,0.5-0.3,1.4-1,1.8
		c-0.6,0.4-0.4,1.1-1.2,1.5c-0.8,0.4-0.2,1.1-0.2,1.1l-1.6,1c0,0-0.3,0.3-1.3,1.2c-1,0.8-0.2,0.2-1.5,2c-1.3,1.8-1.7,1.8-1.6,2.2
		c0.1,0.4-2.6,3-3.1,2.9c-0.5-0.1-0.6,1-1.6,2.3c-0.9,1.3-0.6,2.8-1.3,3.3c-0.7,0.5-1.4,1.4-1.5,1.5c-0.1,0.2-0.9,1-1,1.4
		c-0.1,0.5,1.2,0,1.2,0l-1.5,1.7c0,0-2.4,1.9-2.9,2.3c-0.5,0.4,0.2-0.8-1,1.5c-1.2,2.4-0.3,3.2-1.9,2.7c-1.6-0.5-1.2-0.2-2,1.2
		c-0.9,1.4-1.1,2.7-1.5,2.6c-0.4-0.1-1,0.5-1.6,0.9c-0.6,0.4-0.6,0.1-0.9,1.4c-0.3,1.3-1.5,1.9-2.3,2.6c-0.8,0.7,3.4-1.6,1.7-0.4
		c-1.8,1.3-1.8,1.3-1.8,1.3s-0.7,1.2-1.3,1.3c-0.7,0.2,1.7-0.9-0.8,1.1c-2.5,2-2,2.6-2,2.6l-2.1,2l1.8-1l-1.6,1.5
		c0,0-0.7,0.3-1.8,1.3c-1.1,1-0.3,0.7-0.7,1.6c-0.4,0.9,0,0.9-1,1c-0.9,0.1-1.8,0.4-2,1.2c-0.2,0.8,0,1.9-1.1,2.4
		c-1.2,0.6-0.9,1.9-1.6,2.7c-0.7,0.8-0.3,1-0.9,0.9c-0.6-0.1-1.1,0.2-1.5,0.8c-0.4,0.5-0.3,1.8-0.9,2.1c-0.6,0.4,1.1-0.7,1.1-0.7
		l-1.5,1.6c0,0-1.4,1.1-2.4,1.8c-1,0.7-0.2,1.3-1.1,2.1c-0.9,0.8-0.2,1.1-1.2,1.6c-1,0.4,1.4-0.9-1,0.9c-2.5,1.7-0.9,2-1.6,2.2
		c-0.7,0.2-0.7,0.4-1.3,0.9c-0.6,0.5,1.2,0.2,1.2,0.2s-1.4,0.9-1.6,1c-0.2,0-3.2,2.2-3.2,2.2s-3.3,5.4-5.2,6.4
		c-1.9,1,3.8-0.5,0.5,1.4c-3.3,2-3,3.1-3,3.1l1.5-0.2c0,0-2.3,2-2.7,2.1c-0.4,0.1,0.7-1-1.5,0.4c-2.2,1.4-1.1,3.1-1.7,3.6
		c-0.6,0.5-0.9,0.7-1.9,1.4c-1,0.7,4.3,0.4,2.3,0.7c-1.9,0.3-6.6,1.8-6.6,1.8s1.5,0.3-1.4,3.1c-2.9,2.8-3.4,2.5-4,2.8
		c-0.6,0.2-1.7,0.8-2.9,3c-1.3,2.2-0.3,3.7-3.2,4.1c-2.9,0.4-1.1,0.8-2.2,1.6c-1.1,0.8-1.7,2.3-2.9,3.3c-1.2,0.9-1.9,3.6-2.8,4
		c-1,0.4-1.3,2-1.3,2l-1.8,0.8l1.5,0l-3.2,1.3L396,307.5l20.4-32.2c0,0,1.9-0.9,1.7-1.8c-0.2-0.9,0.4-0.4,0.8-1.8
		c0.4-1.4,0.9-1.9,0.9-1.9l0.4,0.3l0.7-1.6c0,0,1.8-1.1,1.8-1.5c-0.1-0.4,0.9-1,1.1-2.4c0.2-1.5,1.2-2.7,1.5-2.8
		c0.3-0.1,4.5-3,5.3-4c0.8-1,1.5-1.7,1.2-2.8c-0.2-1.1,0.9-2.5,3.3-4.7c2.4-2.2,5.1-7.2,5-7.8c-0.1-0.6,1.4-3.4,2.1-2.8
		c0.7,0.6,2.1-1.4,2.1-1.4l2.3-2l-0.6,2c0,0,2.7-2.8,2.6-3.2c0-0.4,1.2-0.3,0.8-0.8c-0.4-0.5,0.4-1,0.6-1.7c0.2-0.7,0.5-1.3,0.6-1.5
		c0.1-0.2,0.5-1.3,1-2.1c0.5-0.8,1.8-0.1,1.6-0.7c-0.2-0.6,0.2-0.9,0.3-1.3c0.1-0.4,6.1-5,6.2-5.4c0.1-0.3,0.7-0.4,0.6-1
		c-0.1-0.6,0.2-2.2,1.3-3c1.1-0.9,2.9-1.8,2.9-1.8l1.9-2.5l0,1.6c0,0,1-1.8,1.5-3c0.6-1.3,2.4-2.7,2.3-3.6c-0.1-0.9,1.3-1.3,1.6-1.4
		c0.3-0.2,1-1.9,1-1.9l0.6-0.3l0.3,0.4c0,0,1.2-1.4,1.2-1.8c0-0.4,1.6-1.2,1.7-1.4c0.1-0.3,0.7,0,0.9-0.9c0.2-0.9,0.9-1.4,0.9-1.4
		l0.3,0.4c0,0,0.3-0.5,0.3-0.8c-0.1-0.2,0.5-0.5,0.2-1.5c-0.3-1,0.2-1.2,0.2-1.2l0.6,0.2l0.7-0.6c0,0,0.6-1.7,0.9-1.6
		c0.2,0.1,0.2,0.4,0.2,0.4s0.4-0.7,0.4-0.8c0-0.1,0.4-0.3,0.4,0c0,0.3,0.9-1.3,0.9-1.3l1.4-0.7l0.5-1.2l0.7-1.4c0,0,0.3-0.2,0.2,0.2
		c-0.2,0.4,0.7-0.5,0.8-0.9c0.2-0.3,0.4-0.6,0.9-0.8c0.5-0.2,0.4,0.2,0.4,0.2l0.6-1.1l1.8-1.5l0-0.3l0.6-0.6l-0.2,0.7
		c0,0,0-0.5,0.7-1.3c0.7-0.9,1.2-1.4,1.2-1.4s0.3-1.1,0.3-1.3c0.1-0.2,0.1-0.6,0.8-0.7c0.7-0.1,1-0.5,1.3-0.9
		c0.3-0.3-0.3,0.2,0.6-1.3c1-1.5,1-1.5,1.4-1.7c0.5-0.2,0,0.4,0.9-0.3c0.9-0.7,1.2-0.9,1.9-1.8c0.7-0.9,0.8-1.3,1-1.5
		c0.2-0.2,1.4-1.8,1.4-1.8l2-1.1c0,0,0.6-0.5,0.7-0.8c0-0.3-0.3,1.2-0.3,1.2l0.6-1.2c0,0-0.3-0.7,0.4-1.2c0.7-0.5,1-0.5,1.2-1
		c0.2-0.5,0.4-0.7,0.6-1.1c0.3-0.4,0.4-0.5,0.8-0.8c0.4-0.3,0.5-0.6,0.5-0.6s1-0.3,1.8-1.2c0.9-0.9,1.8-1.7,1.8-1.7l0.9-1.3
		l-0.1,1.5l0.9-2.4l2.1-2l1.1-1.3c0,0,0.3-0.7,0.7-1.3C518.6,154.4,529.5,143.5,529.5,143.5"/>
	<path style="fill-rule:evenodd;clip-rule:evenodd;fill:#FF5100;" d="M388.4,277.7l5.4-8.7l-1,0.2l2-1.9l2.3-3.8l-1.3,0.5l1.7-1.8l1.5-0.9l0.5-1.4l0.6-0.6l0.6-0.3l1.2-0.7l0.8-1
		l0.1-0.7l0-0.8c0,0-0.1-0.7,0.2-0.9c0.3-0.2,0.7-0.7,0.8-1c0.1-0.3,0.3-1.1,0.3-1.1s0.4-0.5,1.3-1.5c0.9-1,0.9-0.8,1.6-2
		c0.6-1.2,0.9-2.3,0.9-2.3l2-2.6l-1.4,1.1l1.6-2.2l1,0c0,0,1.3-1.4,1.8-1.9c0.5-0.5,0.3-1.1,0.7-1.7c0.4-0.6,0.4-2.6,0.8-2.8
		c0.4-0.1,0.7-0.4,1.3-0.7c0.6-0.3,1.9-2.1,2.2-2.4c0.3-0.3,0.2-0.7,0.9-1.4c0.6-0.7,0.6-1.8,0.6-1.8l1.5-1.4l1.5-1.9l1.6-1.7
		c0,0-0.3-0.5,0.4,0c0.6,0.4,0.8,1.4,1.6,0.2c0.8-1.2,1.2-3.6,1.2-3.6l-0.9,0.7l1.8-2.1l0.9-0.6c0,0-0.3,0.6,0.4-0.5
		c0.7-1.1,0.8-1.5,1.3-1.7c0.5-0.2,2.7-2.5,2.9-2.6c0.2-0.1,0.4-0.5,1-1.3c0.7-0.8-0.5-1,0.3-1.3c0.7-0.3,1.4-1.1,1.8-1.3
		c0.4-0.2,0.1-0.5,0.9-1.6c0.7-1.1,0.9-0.8,1.3-0.8s0.4-0.3,0.6-1c0.2-0.7,0.1-1.4,0.3-1.6c0.2-0.1,0.2-1.3,0.2-1.3l1-0.2
		c0,0,0.9-0.5,1.1-0.5c0.2-0.1-0.8-0.1-0.7-0.2c0.1-0.1,1.5-1,1.6-1c0.1-0.1,0.7-0.9,0.7-0.9s0.8-0.5,1-0.6c0.3-0.1,0.2-0.6,1.1-1.5
		c0.8-0.9,1-1.5,1.2-1.3c0.3,0.2,0.4-0.2,0.6-0.6c0.3-0.4,1.2-1.7,1.2-1.7l-1.3,0.6c0,0,1.2-1.1,1.3-1.1c0.1,0,1-0.6,1.1-0.7
		c0.1-0.1,0.8-0.3,0.8-0.3s-0.4-0.8,0.5-1.5c0.8-0.7,1.3-1.1,1.4-1.5c0.2-0.4,0.1-0.4,0.8-0.9c0.7-0.5-0.4-0.7,0.3-1
		c0.7-0.4,1.1-0.7,1.3-0.7c0.2,0,1.6-0.9,1.6-0.9l-1.1,0c0,0,0.7-0.4,0.9-0.6c0.2-0.2,0.8-0.6,0.9-0.6c0.1,0,0.6-0.6,0.6-0.6
		s1.3-2.2,2-2.6c0.6-0.4,0.6-0.6,1.1-1.4c0.5-0.8,0.2-1.2,0.8-1.6c0.7-0.5,0.2-0.5,0.7-1c0.5-0.5,0.5-0.9,0.6-0.9
		c0.2-0.1,1.6-2.8,1.9-2.9c0.4,0,0.7-0.6,1.6-1.6c0.9-1.1,0.4-1.7,1.3-1.7c0.9,0,0.7-0.9,1.2-1.3c0.6-0.4,0.8-0.9,1.4-1
		c0.6-0.2-1.2,0-1.2,0l2-0.7l0.7-0.4c0,0,0-0.1,0.7-0.4c0.7-0.3,0.8-0.5,0.8-0.9c0.1-0.4,0.5-1,0.6-1c0.1,0-0.4,0.4,0.4,0.2
		c0.7-0.3,1-0.2,1.9-1.2c0.8-0.9,0.8-1.1,1.1-1.4c0.3-0.2-0.9,0.2-0.9,0.2s1.1-0.6,1.2-0.7c0.1,0,0.8-0.9,1-0.9
		c0.1-0.1-0.6-0.3,0.8-1.3c1.4-1,1.1-0.6,1.5-1.6c0.5-0.9,2.4-3.3,2.7-3.4c0.2-0.1-0.1-0.3,0.3-1.2c0.5-0.9-0.1-0.9-0.1-0.9
		s0.7-0.2,0.8-0.2c0.1,0-0.2,1,0.8-0.6c1-1.5,0.7-1.7,1.2-1.9c0.5-0.2,0.7-0.5,0.9-0.5c0.2,0,2-0.9,3.4-3.6c1.4-2.7,0.8-2,3-3.9
		c2.2-2,4.3-5.6,4.6-5.4c0.4,0.2,6.7-7.9,7-7.6c0.3,0.3-8.4,11.6-8.4,11.6c0,0-9,14-9,14c-0.3,2.1-0.2,1.1-2.1,2.7
		c-1.9,1.5-3.1,3.5-3,4.1c0.1,0.6-0.3,2.8-1.4,3.7c-1.1,0.9-1.3,0.1-1.7,0.3c-0.4,0.2-1,0.8-1,0.8l-1.5,2.7l-0.2-0.9l-0.9,2.3
		c0,0-1.2,1.8-2.2,2.5c-1,0.7-1.6,1.1-1.8,2.4c-0.1,1.3-0.6,1.9-0.6,1.9s-1.2,0.8-2.3,2.6c-1.1,1.8-1.4,0.5-1.8,2
		c-0.4,1.5-2.4,2.2-3.3,2.3c-0.9,0.1-1.8,1-2,2c-0.1,1.1-1.7,2.6-1.7,2.6l1.6-0.6c0,0-1.4,3.1-2.2,3.8c-0.8,0.7-1.6,1.3-1.7,1.5
		c-0.1,0.2-0.1,0.7-0.3,0.8c-0.2,0.1,1,0.6-1.9,3c-2.9,2.4-3.8,4.8-3.9,5c-0.1,0.2-0.8-0.5-0.8-0.5l-1.5,3.8c0,0,0.4-0.3-0.8,0.8
		c-1.2,1.2-1.2,1.5-1.2,1.9c0,0.3-0.6,2-1.1,2.4c-0.5,0.4-1.2-0.6-1.2-0.6s-1.2-0.5-2.1,2.1c-0.8,2.5-1.6,2.6-1.8,2.4
		c-0.2-0.2-1.1-0.4-1.5,0.9c-0.4,1.3-0.5,2.7-1.6,3.3c-1.1,0.6-1.5,0.2-1.8,1.3c-0.3,1.1-2.9,3.1-2.9,3.1l-1.8,2.3l-1.6,3.7
		l-0.5-1.4l-1.2,2.2c0,0-0.4,0.1-1.5,2.1c-1.1,1.9-0.5,2-2,3.1c-1.5,1.1-1.3-1.4-2.4,1.1c-1,2.5-1.5,2.6-1.5,2.9
		c0,0.3-0.6,2.4-1.5,1.4c-0.9-1-1.8,1.6-1.8,1.9c0,0.3-2.3,2.6-2.3,2.6l0.5-2.6c0,0-1.9,3.8-1.9,4.1c0,0.3,0.3,0.8-1.9,2.7
		c-2.2,1.9-3.6,1.4-3.9,3.9c-0.3,2.5-2.2,3.4-2.2,3.4l0.3-1.6l-1.5,1.9c0,0-0.5,1.2-1.5,2.5c-1,1.2-1.7,1.9-2.5,2.6
		c-0.8,0.6-2.4,0.1-2.2,1.1c0.3,1-0.9,1.8-0.9,1.8L388.4,277.7z"/>
	<path style="fill-rule:evenodd;clip-rule:evenodd;fill:#FF5100;" d="M442.9,169.5c0.4-0.6,0.9-1.2,1.4-1.7c0.1-0.1,0.1-0.2,0.2-0.2l0,0l-0.1-0.2l-0.6,0.7c0,0,0.6-0.4,0.8-0.5l0,0
		c0.2-0.2,0.3-0.3,0.5-0.4c1.2-0.7-2.5,0.3-0.3-0.9c2.1-1.3,2-2,2-2l-1,0.1c0,0,1.5-1.3,1.7-1.4c0.3-0.1-0.5,0.7,1-0.3
		c1.4-0.9,0.7-2,1.1-2.3c0.4-0.3,0.6-0.5,1.2-0.9c0.7-0.5-2.8-0.3-1.5-0.5c1.3-0.2,4.3-1.2,4.3-1.2s-1-0.2,0.9-2
		c1.9-1.8,2.2-1.7,2.6-1.8c0.4-0.1,1.1-0.5,1.9-1.9c0.8-1.4,0.2-2.4,2.1-2.7c1.9-0.3,0.7-0.5,1.4-1.1c0.7-0.5,1.1-1.5,1.9-2.1
		c0.8-0.6,1.2-2.3,1.8-2.6c0.6-0.3,0.9-1.3,0.9-1.3l1.2-0.5l-1,0l2.1-0.8l7.3-9.9l-13.3,21c0,0-1.2,0.6-1.1,1.2
		c0.1,0.6-0.2,0.3-0.5,1.2c-0.3,0.9-0.6,1.3-0.6,1.3l-0.3-0.2l-0.4,1.1c0,0-1.2,0.7-1.1,1c0,0.2-0.6,0.6-0.7,1.6
		c-0.1,1-0.8,1.7-0.9,1.8c-0.2,0.1-2.9,2-3.5,2.6c-0.5,0.7-1,1.1-0.8,1.8c0.2,0.7-0.6,1.6-2.1,3.1c-1,0.9-2.1,2.6-2.7,3.8l0.2,0.2
		c-0.1,0.1-0.3,0.2-0.4,0.3c-1.4,2.9,0.8,0.7-2.2,2.6l-0.1-0.1c0,0.5-0.2,1.3-0.8,1.8c-0.7,0.6-1.9,1.2-1.9,1.2l-1.2,1.6l0-1
		c0,0-0.6,1.1-1,2c-0.4,0.8-1.6,1.8-1.5,2.4c0.1,0.6-0.8,0.8-1,0.9c-0.2,0.1-0.7,1.3-0.7,1.3l-0.4,0.2l-0.2-0.2c0,0-0.7,0.9-0.7,1.2
		c0,0.3-1,0.8-1.1,0.9c-0.1,0.2-0.5,0-0.6,0.6c-0.1,0.6-0.6,0.9-0.6,0.9l-0.2-0.3c0,0-0.2,0.4-0.2,0.5c0,0.1-0.3,0.3-0.1,1
		c0.2,0.6-0.1,0.8-0.1,0.8l-0.4-0.1l-0.5,0.4c0,0-0.4,1.1-0.6,1c-0.1-0.1-0.1-0.3-0.1-0.3s-0.3,0.5-0.2,0.5c0,0-0.3,0.2-0.2,0
		c0-0.2-0.6,0.8-0.6,0.8l-0.9,0.5l-0.4,0.8l-0.4,0.9c0,0-0.2,0.1-0.1-0.1c0.1-0.2-0.4,0.3-0.5,0.6c-0.1,0.2-0.3,0.4-0.6,0.5
		c-0.3,0.1-0.2-0.1-0.2-0.1l-0.4,0.7l-1.1,1l0,0.2l-0.4,0.4l0.1-0.4c0,0,0,0.3-0.5,0.9c-0.5,0.6-0.8,0.9-0.8,0.9s-0.2,0.7-0.2,0.9
		c0,0.1,0,0.4-0.5,0.5c-0.5,0.1-0.7,0.3-0.8,0.6c-0.2,0.2,0.2-0.1-0.4,0.9c-0.6,1-0.6,1-0.9,1.1c-0.3,0.1,0-0.2-0.6,0.2
		c-0.6,0.4-0.8,0.6-1.2,1.2c-0.5,0.6-0.5,0.9-0.7,1c-0.1,0.1-0.9,1.2-0.9,1.2l-1.3,0.7c0,0-0.4,0.3-0.4,0.5c0,0.2,0.2-0.8,0.2-0.8
		l-0.4,0.8c0,0,0.2,0.4-0.3,0.8c-0.5,0.3-0.6,0.3-0.8,0.6c-0.1,0.3-0.2,0.5-0.4,0.7c-0.2,0.3-0.3,0.3-0.5,0.5
		c-0.2,0.2-0.3,0.4-0.3,0.4s-0.6,0.2-1.2,0.8c-0.6,0.6-1.2,1.1-1.2,1.1l-0.6,0.9l0.1-1l-0.6,1.6l-1.3,1.3l-0.7,0.8
		c0,0-0.2,0.5-0.5,0.8c-0.2,0.4-7.3,7.4-7.3,7.4l7.2-10.7c0,0,0.4-1.1,0.5-1.2c0.2-0.1,0.3-0.4,0.6-0.7c0.3-0.3,0.4-0.8,0.8-1.3
		c0.4-0.5-0.4-0.2,0.5-0.8c0.8-0.6,0.8-0.7,0.8-0.9c0-0.3,0.5-0.9,0.9-1.1c0.4-0.2-0.3-0.5,0.4-0.8c0.6-0.3,0.2-0.9,0.6-1.2
		c0.4-0.3,0.2-0.7,0.8-1c0.5-0.2,0.1-0.7,0.1-0.7l1.1-0.6c0,0,0.2-0.2,0.9-0.8c0.7-0.5,0.1-0.1,1-1.3c0.9-1.2,1.1-1.2,1-1.4
		c-0.1-0.3,1.7-1.9,2-1.9c0.3,0,0.4-0.7,1-1.5c0.6-0.8,0.4-1.8,0.8-2.1c0.5-0.3,0.9-0.9,1-1c0.1-0.1,0.6-0.6,0.7-0.9
		c0.1-0.3-0.8,0-0.8,0l1-1.1c0,0,1.5-1.2,1.9-1.5c0.3-0.3-0.2,0.6,0.6-1c0.8-1.6,0.2-2.1,1.2-1.8c1,0.3,0.8,0.1,1.3-0.8
		c0.6-0.9,0.7-1.8,1-1.7c0.2,0.1,0.7-0.3,1-0.6c0.4-0.3,0.4-0.1,0.6-0.9c0.2-0.9,1-1.3,1.5-1.7c0.5-0.5-2.2,1.1-1.1,0.2
		c1.1-0.8,1.2-0.8,1.2-0.8s0.4-0.8,0.9-0.9c0.4-0.1-1.1,0.6,0.6-0.7c1.6-1.3,1.3-1.7,1.3-1.7l1.4-1.3l-1.2,0.6l1.1-1
		c0,0,0.5-0.2,1.2-0.9c0.7-0.6,0.2-0.5,0.5-1.1c0.2-0.6,0-0.6,0.6-0.7c0.6-0.1,1.2-0.2,1.3-0.8c0.1-0.5,0-1.2,0.7-1.6
		c0.8-0.4,0.6-1.2,1-1.8C442.7,169.5,442.5,169.4,442.9,169.5L442.9,169.5z"/>
	<path style="fill:#231F20;" d="M71.4,438.2h7.5c4.8,0,8.2,1.8,8.2,6.4c0,6.6-4.9,9.3-11.3,9.3h-3.5l-1.9,9.4h-4.1L71.4,438.2z M76.2,450.6
		c4.4,0,6.8-1.9,6.8-5.4c0-2.6-1.8-3.7-4.9-3.7h-3.3l-1.8,9.1H76.2z"/>
	<path style="fill:#231F20;" d="M70.9,463.7h-5.1l5.2-26h7.9c5.6,0,8.7,2.4,8.7,6.9c0,6.2-4.3,9.8-11.7,9.8h-3.1L70.9,463.7z M66.9,462.8h3.2
		l1.9-9.4h3.9c4,0,10.8-1.1,10.8-8.8c0-4.9-4.2-5.9-7.8-5.9h-7.1L66.9,462.8z M76.2,451.1h-3.7l2-10h3.6c3.6,0,5.4,1.4,5.4,4.1
		C83.5,449,80.9,451.1,76.2,451.1 M73.6,450.1h2.6c4.2,0,6.4-1.7,6.4-4.9c0-1.4-0.5-3.2-4.5-3.2h-2.9L73.6,450.1z"/>
	<polygon style="fill:#231F20;" points="97,438.2 111.3,438.2 110.6,441.7 100.4,441.7 99,448.4 107.7,448.4 107,451.9 98.4,451.9 96.7,459.8 
		107.3,459.8 106.6,463.3 91.9,463.3 	"/>
	<path style="fill:#231F20;" d="M107,463.7H91.4l5.2-26h15.3l-0.9,4.4h-10.3l-1.2,5.8h8.7l-0.9,4.4h-8.7l-1.4,6.9h10.6L107,463.7z M92.5,462.8
		h13.8l0.5-2.6H96.2l1.8-8.8h8.7l0.5-2.6h-8.7l1.5-7.7h10.3l0.5-2.6H97.3L92.5,462.8z"/>
	<polygon style="fill:#231F20;" points="124.6,441.7 117.7,441.7 118.4,438.2 136.4,438.2 135.7,441.7 128.7,441.7 124.5,463.3 120.3,463.3 	
		"/>
	<path style="fill:#231F20;" d="M124.8,463.7h-5.1l4.3-21.6h-6.9l0.9-4.4h18.9l-0.9,4.4h-6.9L124.8,463.7z M120.9,462.8h3.2l4.3-21.6h6.9
		l0.5-2.6h-17.1l-0.5,2.6h6.9L120.9,462.8z"/>
	<path style="fill:#231F20;" d="M151.6,453.4c0-8.3,5.5-15.7,13.1-15.7c2.9,0,5.1,1.5,6.4,3.8l-2.9,2.2c-1-1.5-2.1-2.5-3.8-2.5
		c-5.1,0-8.7,6-8.7,11.8c0,4.2,1.7,7.1,5.8,7.1c1.8,0,3.3-0.8,4.8-2.1l1.8,2.7c-1.7,1.5-4.2,3-7.4,3
		C155,463.7,151.6,459.7,151.6,453.4"/>
	<path style="fill:#231F20;" d="M160.8,464.2c-6,0-9.7-4.1-9.7-10.8c0-8.9,6.1-16.1,13.6-16.1c2.9,0,5.3,1.4,6.8,4.1l0.2,0.4l-3.6,2.7
		l-0.3-0.4c-0.9-1.5-2-2.2-3.4-2.2c-4.9,0-8.2,5.9-8.2,11.3c0,3,0.9,6.6,5.3,6.6c1.5,0,2.9-0.6,4.5-2l0.4-0.3l2.3,3.4l-0.3,0.3
		C166.1,463.1,163.6,464.2,160.8,464.2 M164.7,438.2c-7,0-12.7,6.8-12.7,15.2c0,6.1,3.4,9.8,8.7,9.8c2.4,0,4.7-0.9,6.8-2.6l-1.3-1.9
		c-1.6,1.2-3.1,1.9-4.7,1.9c-4,0-6.3-2.7-6.3-7.5c0-5.9,3.7-12.3,9.2-12.3c1.6,0,2.8,0.7,3.9,2.2l2.1-1.6
		C169.2,439.4,167.1,438.2,164.7,438.2"/>
	<path style="fill:#231F20;" d="M185.9,438.2h4.9l2.7,25.1h-4.3l-1-14c-0.2-2.6-0.4-5.1-0.5-7.8h-0.2c-1.2,2.7-2.3,5.2-3.6,7.8l-6.9,14h-4.6
		L185.9,438.2z M179.5,453.1h11.2l-0.7,3.2h-11.3L179.5,453.1z"/>
	<path style="fill:#231F20;" d="M194,463.7h-5.3l-0.5-7.1h-7.4l-3.5,7.1h-5.6l13.9-26h5.6L194,463.7z M189.6,462.8h3.4l-2.6-24.1h-4.2
		l-12.9,24.1h3.5l3-6.1h-1.5l1-4.1h2.6l1.7-3.5c1.4-2.8,2.6-5.4,3.6-7.8l0.1-0.3h0.9l0,0.4c0.1,2,0.2,3.9,0.3,5.7l0.4,5.4h2.5
		l-1,4.1h-1.3L189.6,462.8z M189.1,455.8h0.6l0.5-2.2h-1.3L189.1,455.8z M181.2,455.8h6.9l-0.2-2.2h-5.7L181.2,455.8z M179.4,455.8
		h0.8l1.1-2.2h-1.4L179.4,455.8z M182.8,452.6h5.1l-0.4-5.4c-0.1-1.3-0.2-2.7-0.3-4.1c-0.9,2-1.9,4.1-3,6.4L182.8,452.6z"/>
	<path style="fill:#231F20;" d="M205,438.2h4.6l2,12.5l0.7,4.8h0.2l2.5-4.8l6.9-12.5h4.6l-5,25.1h-3.9l2.5-12c0.5-2.4,1.4-5.6,2.1-7.9h-0.1
		l-3.1,5.7l-6.6,11.8h-1.9l-2.1-11.8l-0.8-5.7h-0.1c-0.3,2.3-0.6,5.5-1,7.9l-2.4,12H200L205,438.2z"/>
	<path style="fill:#231F20;" d="M221.8,463.7h-4.9l2.6-12.6c0.3-1.3,0.7-2.9,1.1-4.4l-1.3,2.5l-6.8,12h-2.6l-2.1-12.2l-0.4-2.6
		c-0.2,1.7-0.4,3.4-0.7,4.8l-2.5,12.4h-4.8l5.2-26h5.4l2.6,16.6l2-3.8l7-12.8h5.4L221.8,463.7z M218,462.8h3l4.8-24.1h-3.7
		l-6.7,12.3l-2.6,5.1h-0.8l-2.7-17.4h-3.8l-4.8,24.1h2.9l2.3-11.6c0.4-1.9,0.6-4.4,0.9-6.6l0.2-1.7h0.9l0.9,6.1l2,11.4h1.2l6.5-11.5
		l3.2-5.9h1l-0.2,0.6c-0.6,2.2-1.5,5.3-2,7.8L218,462.8z"/>
	<path style="fill:#231F20;" d="M236.5,438.2h7.5c4.8,0,8.2,1.8,8.2,6.4c0,6.6-4.9,9.3-11.3,9.3h-3.5l-1.9,9.4h-4.1L236.5,438.2z M241.3,450.6
		c4.4,0,6.8-1.9,6.8-5.4c0-2.6-1.8-3.7-4.9-3.7H240l-1.8,9.1H241.3z"/>
	<path style="fill:#231F20;" d="M236,463.7h-5.1l5.2-26h7.9c5.6,0,8.7,2.4,8.7,6.9c0,6.2-4.3,9.8-11.7,9.8h-3.1L236,463.7z M232.1,462.8h3.2
		l1.9-9.4h3.9c4,0,10.8-1.1,10.8-8.8c0-4.9-4.2-5.9-7.8-5.9h-7.1L232.1,462.8z M241.3,451.1h-3.7l2-10h3.6c3.6,0,5.4,1.4,5.4,4.1
		C248.6,449,246,451.1,241.3,451.1 M238.7,450.1h2.6c4.2,0,6.4-1.7,6.4-4.9c0-1.4-0.5-3.2-4.5-3.2h-2.9L238.7,450.1z"/>
	<path style="fill:#231F20;" d="M251.5,461.3c0-1.6,1.3-3.3,3.2-3.3c1.4,0,2.2,1,2.2,2.4c0,1.6-1.3,3.3-3.1,3.3
		C252.4,463.7,251.5,462.7,251.5,461.3"/>
	<path style="fill:#231F20;" d="M253.8,464.2c-1.6,0-2.7-1.2-2.7-2.9c0-1.8,1.5-3.7,3.6-3.7c1.6,0,2.7,1.2,2.7,2.9
		C257.4,462.3,256,464.2,253.8,464.2 M254.7,458.5c-1.6,0-2.7,1.5-2.7,2.8c0,1.2,0.7,1.9,1.8,1.9c1.6,0,2.7-1.4,2.7-2.8
		C256.5,459.3,255.8,458.5,254.7,458.5"/>
	<path style="fill:#231F20;" d="M282.2,438.2h7.5c4.8,0,8.2,1.8,8.2,6.4c0,6.6-4.9,9.3-11.3,9.3h-3.5l-1.9,9.4h-4.1L282.2,438.2z M287,450.6
		c4.4,0,6.8-1.9,6.8-5.4c0-2.6-1.8-3.7-4.9-3.7h-3.3l-1.8,9.1H287z"/>
	<path style="fill:#231F20;" d="M281.7,463.7h-5.1l5.2-26h7.9c5.6,0,8.7,2.4,8.7,6.9c0,6.2-4.3,9.8-11.7,9.8h-3.1L281.7,463.7z M277.8,462.8
		h3.2l1.9-9.4h3.9c4,0,10.8-1.1,10.8-8.8c0-4.9-4.2-5.9-7.8-5.9h-7.1L277.8,462.8z M287,451.1h-3.7l2-10h3.6c3.6,0,5.4,1.4,5.4,4.1
		C294.3,449,291.7,451.1,287,451.1 M284.5,450.1h2.6c4.2,0,6.4-1.7,6.4-4.9c0-1.4-0.5-3.2-4.5-3.2h-2.9L284.5,450.1z"/>
	<polygon style="fill:#231F20;" points="307.8,438.2 322.1,438.2 321.4,441.7 311.2,441.7 309.9,448.4 318.6,448.4 317.9,451.9 309.2,451.9 
		307.6,459.8 318.2,459.8 317.5,463.3 302.8,463.3 	"/>
	<path style="fill:#231F20;" d="M317.9,463.7h-15.7l5.2-26h15.3l-0.9,4.4h-10.3l-1.2,5.8h8.7l-0.9,4.4h-8.7l-1.4,6.9h10.6L317.9,463.7z
		 M303.3,462.8h13.8l0.5-2.6H307l1.8-8.8h8.7l0.5-2.6h-8.7l1.5-7.7h10.3l0.5-2.6h-13.4L303.3,462.8z"/>
	<polygon style="fill:#231F20;" points="335.4,441.7 328.5,441.7 329.2,438.2 347.2,438.2 346.5,441.7 339.6,441.7 335.3,463.3 331.2,463.3 	
		"/>
	<path style="fill:#231F20;" d="M335.7,463.7h-5.1l4.3-21.6h-6.9l0.9-4.4h18.9l-0.9,4.4H340L335.7,463.7z M331.7,462.8h3.2l4.3-21.6h6.9
		l0.5-2.6h-17.1l-0.5,2.6h6.9L331.7,462.8z"/>
	<path style="fill:#231F20;" d="M360.6,459.2l3-2.3c1.4,2.1,3.5,3.3,6,3.3c2.6,0,4.5-1.5,4.5-3.8c0-1.6-1.2-2.5-3-3.6l-2.6-1.6
		c-2.2-1.4-3.8-3.1-3.8-6.1c0-4,3.6-7.4,8.3-7.4c3,0,5.6,1.5,7.3,3.7l-2.6,2.4c-1.3-1.4-2.9-2.5-4.9-2.5c-2.4,0-3.9,1.6-3.9,3.4
		c0,1.6,1.3,2.4,3.2,3.6l2.7,1.6c2.4,1.4,3.6,3.1,3.6,5.9c0,4.5-3.7,7.9-9.1,7.9C365.9,463.7,362.8,462.3,360.6,459.2"/>
	<path style="fill:#231F20;" d="M369.2,464.2c-3.7,0-6.8-1.6-9-4.8l-0.3-0.4l3.7-2.9l0.3,0.4c1.4,2,3.4,3.1,5.6,3.1c2.4,0,4-1.3,4-3.3
		c0-1.3-0.9-2.1-2.8-3.2l-2.6-1.6c-1.7-1.1-4-2.9-4-6.5c0-4.4,3.9-7.8,8.8-7.8c2.9,0,5.8,1.4,7.7,3.8l0.3,0.3l-3.3,3.1l-0.3-0.4
		c-1.4-1.6-2.9-2.4-4.6-2.4c-2.2,0-3.4,1.5-3.4,2.9c0,1.3,1.1,2,3,3.2l2.7,1.6c2.7,1.6,3.8,3.5,3.8,6.3
		C378.8,460.7,374.8,464.2,369.2,464.2 M361.2,459.3c2,2.6,4.8,4,8,4c5.1,0,8.6-3.1,8.6-7.4c0-2.5-1-4.1-3.4-5.5l-2.7-1.6
		c-1.8-1.1-3.4-2.1-3.4-4c0-1.9,1.5-3.8,4.3-3.8c1.8,0,3.4,0.8,5,2.3l2-1.8c-1.8-2-4.2-3.2-6.7-3.2c-4.4,0-7.9,3-7.9,6.9
		c0,2.4,1.1,4.2,3.6,5.7l2.6,1.6c1.8,1.1,3.2,2.1,3.2,4c0,2.5-2,4.3-4.9,4.3c-2.4,0-4.5-1.1-6.1-3.2L361.2,459.3z"/>
	<polygon style="fill:#231F20;" points="393.1,441.7 386.1,441.7 386.8,438.2 404.8,438.2 404.1,441.7 397.2,441.7 392.9,463.3 388.8,463.3 	
		"/>
	<path style="fill:#231F20;" d="M393.3,463.7h-5.1l4.3-21.6h-6.9l0.9-4.4h18.9l-0.9,4.4h-6.9L393.3,463.7z M389.4,462.8h3.2l4.3-21.6h6.9
		l0.5-2.6h-17.1l-0.5,2.6h6.9L389.4,462.8z"/>
	<path style="fill:#231F20;" d="M408,453.2c0-8.3,5.5-15.4,12.5-15.4c5.7,0,9,4,9,10.5c0,8.3-5.5,15.4-12.5,15.4
		C411.4,463.7,408,459.7,408,453.2 M425.3,448.6c0-4.4-1.7-7.3-5-7.3c-4.5,0-8,5.7-8,11.6c0,4.4,1.7,7.3,5,7.3
		C421.8,460.2,425.3,454.4,425.3,448.6"/>
	<path style="fill:#231F20;" d="M417.1,464.2c-5.9,0-9.5-4.2-9.5-11c0-8.8,5.8-15.9,12.9-15.9c5.9,0,9.5,4.2,9.5,11
		C430,457.1,424.2,464.2,417.1,464.2 M420.5,438.2c-6.6,0-12,6.7-12,15c0,6.3,3.2,10.1,8.6,10.1c6.6,0,12-6.7,12-15
		C429.1,442,425.9,438.2,420.5,438.2 M417.3,460.6c-3.5,0-5.5-2.8-5.5-7.7c0-6.4,4-12,8.5-12c3.5,0,5.5,2.8,5.5,7.7
		C425.8,455,421.8,460.6,417.3,460.6 M420.3,441.8c-4,0-7.6,5.3-7.6,11.1c0,2.5,0.6,6.8,4.6,6.8c4,0,7.6-5.3,7.6-11.1
		C424.9,446,424.3,441.8,420.3,441.8"/>
	<path style="fill:#231F20;" d="M440.6,438.2h7.4c4.8,0,8.2,1.7,8.2,6.1c0,6.1-5,9-10.7,9h-3.8l-2,9.9h-4.1L440.6,438.2z M445.6,450.1
		c4.2,0,6.5-2,6.5-5.2c0-2.4-1.7-3.4-4.9-3.4h-3.1l-1.7,8.6H445.6z M445.1,452.5l3.1-2.6l5.3,13.4h-4.4L445.1,452.5z"/>
	<path style="fill:#231F20;" d="M454.2,463.7h-5.4l-3.7-9.9h-3l-2,9.9h-5.1l5.2-26h7.8c5.7,0,8.7,2.3,8.7,6.6c0,4.4-2.5,7.6-6.7,8.9
		L454.2,463.7z M449.4,462.8h3.4l-3.7-9.4c-0.9,0.2-1.9,0.3-3,0.4L449.4,462.8z M436.2,462.8h3.2l2-9.9h3.4l-0.2-0.6l2.2-1.8
		c-0.4,0-0.7,0-1.1,0h-3.8l1.9-9.5h3.5c3.6,0,5.4,1.3,5.4,3.9c0,2.6-1.4,4.4-3.8,5.2l0.9,2.2c3.3-1,6.1-3.5,6.1-8
		c0-3.8-2.6-5.7-7.7-5.7h-7L436.2,462.8z M445.7,452.6l0.1,0.3c1,0,2-0.1,3-0.4l-0.8-1.9L445.7,452.6z M443,449.6h2.6
		c0.9,0,1.8-0.1,2.5-0.3l0.2-0.2l0,0.1c2.1-0.7,3.3-2.1,3.3-4.3c0-1.4-0.5-3-4.4-3h-2.8L443,449.6z"/>
	<polygon style="fill:#231F20;" points="466.6,438.2 470.7,438.2 465.7,463.3 461.5,463.3 	"/>
	<path style="fill:#231F20;" d="M466.1,463.7H461l5.2-26h5.1L466.1,463.7z M462.1,462.8h3.2l4.8-24.1h-3.2L462.1,462.8z"/>
	<polygon style="fill:#231F20;" points="480.8,438.2 495.2,438.2 494.5,441.7 484.2,441.7 482.9,448.4 491.6,448.4 490.9,451.9 482.3,451.9 
		480.6,459.8 491.2,459.8 490.5,463.3 475.8,463.3 	"/>
	<path style="fill:#231F20;" d="M490.9,463.7h-15.6l5.2-26h15.3l-0.9,4.4h-10.3l-1.1,5.8h8.7l-0.9,4.4h-8.7l-1.4,6.9h10.6L490.9,463.7z
		 M476.4,462.8h13.8l0.5-2.6h-10.6l1.8-8.8h8.7l0.5-2.6h-8.7l1.5-7.7h10.3l0.5-2.6h-13.4L476.4,462.8z"/>
	<path style="fill:#231F20;" d="M498.5,459.2l3-2.3c1.4,2.1,3.5,3.3,6,3.3c2.6,0,4.5-1.5,4.5-3.8c0-1.6-1.2-2.5-3-3.6l-2.6-1.6
		c-2.2-1.4-3.8-3.1-3.8-6.1c0-4,3.6-7.4,8.3-7.4c3,0,5.6,1.5,7.3,3.7l-2.6,2.4c-1.3-1.4-2.9-2.5-4.9-2.5c-2.4,0-3.9,1.6-3.9,3.4
		c0,1.6,1.3,2.4,3.2,3.6l2.7,1.6c2.4,1.4,3.6,3.1,3.6,5.9c0,4.5-3.7,7.9-9.1,7.9C503.8,463.7,500.7,462.3,498.5,459.2"/>
	<path style="fill:#231F20;" d="M507.2,464.2c-3.7,0-6.8-1.6-9-4.8l-0.3-0.4l3.7-2.9l0.3,0.4c1.4,2,3.4,3.1,5.6,3.1c2.4,0,4-1.3,4-3.3
		c0-1.3-0.9-2.1-2.8-3.2l-2.6-1.6c-1.7-1.1-4-2.9-4-6.5c0-4.4,3.9-7.8,8.8-7.8c2.9,0,5.8,1.4,7.7,3.8l0.3,0.3l-3.3,3.1l-0.3-0.4
		c-1.4-1.6-2.9-2.4-4.6-2.4c-2.2,0-3.4,1.5-3.4,2.9c0,1.3,1.1,2,3,3.2l2.7,1.6c2.7,1.6,3.8,3.5,3.8,6.3
		C516.7,460.7,512.7,464.2,507.2,464.2 M499.2,459.3c2,2.6,4.8,4,8,4c5.1,0,8.6-3.1,8.6-7.4c0-2.5-1-4.1-3.4-5.5l-2.7-1.6
		c-1.8-1.1-3.4-2.1-3.4-4c0-1.9,1.5-3.8,4.3-3.8c1.8,0,3.4,0.8,5,2.3l2-1.8c-1.8-2-4.2-3.2-6.7-3.2c-4.4,0-7.9,3-7.9,6.9
		c0,2.4,1.1,4.2,3.6,5.7l2.6,1.6c1.8,1.1,3.2,2.1,3.2,4c0,2.5-2,4.3-4.9,4.3c-2.4,0-4.5-1.1-6.1-3.2L499.2,459.3z"/>
	<path style="fill:#231F20;" d="M522.8,461.3c0-1.6,1.3-3.3,3.2-3.3c1.4,0,2.2,1,2.2,2.4c0,1.6-1.3,3.3-3.1,3.3
		C523.6,463.7,522.8,462.7,522.8,461.3"/>
	<path style="fill:#231F20;" d="M525,464.2c-1.6,0-2.7-1.2-2.7-2.9c0-1.8,1.5-3.7,3.6-3.7c1.6,0,2.7,1.2,2.7,2.9
		C528.6,462.3,527.3,464.2,525,464.2 M525.9,458.5c-1.6,0-2.7,1.5-2.7,2.8c0,1.2,0.7,1.9,1.8,1.9c1.6,0,2.7-1.4,2.7-2.8
		C527.7,459.3,527,458.5,525.9,458.5"/>
</g>
</svg>
