<!--?xml version="1.0" standalone="no"?-->

<svg version="1.0" xmlns="http://www.w3.org/2000/svg" width="300.000000pt" height="223.000000pt" viewBox="0 0 300.000000 223.000000" preserveAspectRatio="xMidYMid meet">
<g transform="translate(0.000000,223.000000) scale(0.100000,-0.100000)" fill="#2A2A2A" stroke="none">
<path d="M945 2111 c-124 -35 -157 -41 -220 -41 -38 0 -103 9 -144 20 -85 23
-119 24 -176 9 -51 -14 -97 -49 -126 -95 -47 -76 -23 -220 66 -399 65 -133
100 -218 109 -266 15 -86 77 -112 158 -67 40 23 77 86 108 183 8 22 15 34 18
27 2 -7 -1 -27 -8 -45 -6 -17 -14 -66 -17 -108 -5 -62 -2 -87 16 -137 25 -73
26 -118 6 -192 -52 -184 -52 -275 0 -388 42 -92 89 -146 185 -212 50 -33 90
-64 90 -69 0 -31 116 -139 165 -153 22 -6 58 -28 80 -49 56 -54 142 -89 213
-89 165 1 334 40 347 80 10 31 91 80 133 80 49 1 115 32 153 72 34 38 112 191
130 258 7 25 13 97 13 160 1 109 -1 121 -38 223 -36 104 -38 113 -30 185 7 72
8 75 16 42 16 -59 90 -200 117 -221 50 -40 112 6 151 111 25 67 72 159 160
310 95 161 116 207 130 274 23 111 -7 214 -82 281 -58 53 -143 89 -308 130
-163 42 -236 42 -320 2 -40 -20 -61 -22 -195 -21 -154 1 -285 21 -541 85 -49
12 -109 21 -134 21 -25 -1 -58 -2 -75 -3 -16 0 -50 2 -75 5 -25 3 -58 1 -75
-3z m164 -44 c39 -19 56 -13 26 10 -18 14 -13 15 60 10 44 -3 123 -17 175 -31
194 -51 478 -92 559 -80 l44 7 -21 -31 c-35 -48 -26 -48 31 1 114 98 239 101
506 15 161 -52 232 -129 239 -259 6 -92 -19 -178 -76 -267 -87 -135 -152 -247
-152 -262 0 -8 -24 -62 -53 -120 -59 -119 -91 -148 -125 -117 -11 10 -37 51
-57 92 -37 71 -38 79 -46 216 -10 164 -14 182 -85 309 -50 88 -93 217 -94 277
0 17 20 71 48 126 2 4 -4 7 -13 7 -10 0 -24 -19 -37 -47 -17 -39 -20 -59 -15
-122 7 -95 25 -146 95 -274 l56 -102 0 -105 c0 -76 -7 -130 -23 -195 -20 -79
-23 -105 -17 -210 3 -66 10 -135 15 -153 6 -18 6 -45 1 -62 -5 -16 -5 -32 0
-35 16 -10 22 58 16 179 l-6 121 27 -75 c23 -65 27 -91 27 -200 1 -96 -3 -139
-18 -185 l-19 -60 -13 59 c-8 34 -39 102 -73 161 -69 120 -121 235 -145 320
-10 33 -19 68 -22 78 -3 11 0 17 9 17 24 0 75 66 83 105 18 95 -49 252 -159
373 -34 37 -79 87 -99 112 -43 52 -57 48 -34 -10 23 -57 20 -89 -15 -195 l-32
-93 -41 19 c-23 10 -61 19 -86 19 l-45 0 0 93 c-1 80 -5 103 -34 175 -53 134
-123 192 -232 192 -49 0 -101 -23 -150 -67 -57 -52 -86 -108 -108 -205 -22
-100 -31 -121 -82 -173 -46 -48 -95 -145 -104 -207 -6 -37 -1 -57 26 -122 37
-88 84 -137 179 -185 l58 -28 -81 -75 c-48 -43 -91 -93 -104 -119 -31 -63 -39
-136 -19 -184 l16 -38 -21 19 c-41 35 -96 133 -114 198 -20 72 -17 127 10 254
27 122 27 122 58 47 27 -65 27 -71 21 -195 -4 -80 -3 -129 3 -133 6 -4 10 17
10 52 1 32 6 83 12 113 11 53 10 62 -23 159 -19 57 -46 136 -60 174 -41 111
-34 239 21 410 29 91 53 122 160 201 94 70 138 132 144 199 5 63 -13 60 -28
-5 -16 -68 -41 -100 -131 -169 -116 -88 -151 -128 -193 -218 -22 -46 -39 -86
-39 -90 0 -33 -57 -147 -86 -172 -79 -70 -112 -50 -155 94 -16 54 -38 112 -49
130 -11 18 -40 73 -65 122 -35 72 -47 108 -56 181 -11 80 -10 95 5 135 10 28
31 56 54 74 32 24 47 28 117 31 60 3 96 -2 144 -17 88 -29 179 -28 267 4 81
29 178 30 233 2z m182 -219 c58 -20 103 -56 126 -100 66 -128 90 -226 75 -298
-7 -31 -13 -37 -57 -51 l-49 -15 -34 100 c-33 100 -33 101 -18 152 31 100 16
111 -39 27 -21 -32 -64 -85 -96 -118 -75 -79 -119 -169 -121 -252 -1 -57 1
-65 36 -107 28 -35 44 -46 65 -46 29 0 29 0 19 -45 -11 -52 -47 -120 -84 -160
-33 -36 -66 -30 -155 29 -54 36 -73 57 -103 109 -64 116 -44 214 72 350 36 42
52 70 56 100 22 137 73 234 151 289 64 45 105 54 156 36z m9 -293 c0 -9 9 -35
21 -58 24 -51 36 -131 20 -141 -7 -5 -11 6 -11 34 0 46 -21 94 -45 104 -67 25
-115 -18 -140 -128 -23 -100 -10 -146 50 -172 25 -10 27 -14 12 -19 -29 -12
-74 14 -93 53 -15 32 -16 44 -5 97 15 74 62 155 120 206 46 41 71 49 71 24z
m524 -12 c87 -61 176 -247 163 -344 -5 -39 -47 -99 -69 -99 -21 0 -17 30 8 55
25 25 26 30 22 103 -10 164 -109 272 -182 199 -15 -15 -25 -41 -30 -75 -7 -51
-26 -73 -26 -29 0 38 56 217 68 217 3 0 24 -12 46 -27z m-1077 -35 c-3 -8 -6
-5 -6 6 -1 11 2 17 5 13 3 -3 4 -12 1 -19z m523 -53 c18 -21 1 -124 -22 -138
-45 -29 -67 68 -27 124 23 33 31 35 49 14z m579 -66 c26 -59 24 -83 -6 -87
-27 -4 -53 32 -53 74 0 79 29 85 59 13z m-194 -63 c147 -73 265 -250 265 -400
0 -60 23 -176 40 -202 10 -17 11 -16 6 6 -3 14 -7 54 -11 90 -5 63 -5 64 9 30
7 -19 45 -92 83 -162 82 -148 93 -175 93 -237 0 -102 -36 -162 -122 -205 -56
-28 -116 -38 -68 -12 14 8 29 12 33 9 12 -7 26 17 20 33 -9 25 -78 57 -170 80
-112 27 -168 63 -229 146 -52 72 -66 118 -65 218 1 118 10 155 50 212 43 62
68 73 73 31 6 -58 96 -35 124 32 36 87 3 148 -104 196 -55 25 -76 29 -153 29
-150 0 -249 -52 -249 -130 0 -47 27 -83 80 -104 43 -17 60 -14 60 10 0 33 22
9 56 -62 36 -76 37 -78 30 -165 -13 -169 -44 -227 -148 -275 -58 -26 -73 -29
-178 -30 -89 0 -122 -4 -148 -18 -38 -20 -51 -44 -31 -57 8 -5 9 -9 4 -9 -6 0
-33 20 -61 45 -82 71 -94 149 -39 262 21 42 47 70 126 134 54 44 104 89 110
100 6 11 13 18 16 16 4 -5 -18 -120 -34 -172 -5 -17 -4 -18 9 -7 17 14 41 94
58 196 6 38 17 83 24 100 7 17 19 56 26 86 21 89 65 160 127 202 25 17 41 19
131 15 85 -4 112 -9 157 -31z m-51 -167 c32 -11 66 -33 81 -51 14 -17 25 -32
23 -33 -2 -2 -41 5 -88 16 -49 11 -125 19 -178 19 -105 0 -113 9 -46 47 51 30
134 30 208 2z m-26 -667 c23 -33 57 -72 75 -86 48 -37 133 -73 207 -89 36 -7
76 -19 89 -27 l25 -13 -30 -15 c-16 -8 -49 -32 -73 -54 -75 -65 -123 -64 -235
6 -40 25 -84 50 -99 55 l-28 11 22 29 c23 31 41 140 21 127 -6 -3 -13 -23 -17
-44 -11 -68 -37 -98 -95 -112 -28 -7 -76 -25 -105 -41 -107 -57 -174 -49 -249
31 -42 45 -46 54 -46 99 0 65 11 71 143 71 63 0 123 6 154 15 73 22 137 75
159 131 l18 46 11 -39 c7 -22 31 -67 53 -101z m-38 -253 c24 -11 58 -30 75
-43 51 -39 78 -50 135 -56 l55 -6 -60 -29 c-57 -27 -65 -28 -215 -29 l-156 -1
-59 40 c-62 42 -79 65 -48 65 10 0 38 12 63 26 43 25 117 51 150 53 8 0 35 -9
60 -20z" id="node1" class="node"></path>
<path d="M1284 1965 c-83 -28 -140 -59 -148 -82 -6 -14 -4 -14 16 -1 13 8 34
22 48 31 14 9 59 24 100 35 41 11 76 24 78 31 5 16 -14 13 -94 -14z" id="node2" class="node"></path>
<path d="M1716 1851 c-3 -5 18 -23 46 -39 82 -46 158 -131 212 -233 52 -97 69
-112 37 -33 -26 67 -89 160 -145 216 -51 50 -141 104 -150 89z" id="node3" class="node"></path>
<path d="M1625 910 c-3 -5 -1 -10 4 -10 6 0 11 5 11 10 0 6 -2 10 -4 10 -3 0
-8 -4 -11 -10z" id="node4" class="node"></path>
<path d="M1580 830 c0 -5 5 -10 10 -10 6 0 10 5 10 10 0 6 -4 10 -10 10 -5 0
-10 -4 -10 -10z" id="node5" class="node"></path>
<path d="M1410 809 c0 -5 5 -7 10 -4 6 3 10 8 10 11 0 2 -4 4 -10 4 -5 0 -10
-5 -10 -11z" id="node6" class="node"></path>
<path d="M1640 800 c0 -5 5 -10 10 -10 6 0 10 5 10 10 0 6 -4 10 -10 10 -5 0
-10 -4 -10 -10z" id="node7" class="node"></path>
<path d="M1450 770 c0 -5 5 -10 10 -10 6 0 10 5 10 10 0 6 -4 10 -10 10 -5 0
-10 -4 -10 -10z" id="node8" class="node"></path>
<path d="M1660 745 c0 -8 5 -15 10 -15 6 0 10 7 10 15 0 8 -4 15 -10 15 -5 0
-10 -7 -10 -15z" id="node9" class="node"></path>
<path d="M1355 740 c-3 -5 1 -10 10 -10 9 0 13 5 10 10 -3 6 -8 10 -10 10 -2
0 -7 -4 -10 -10z" id="node10" class="node"></path>
<path d="M1550 730 c0 -5 5 -10 10 -10 6 0 10 5 10 10 0 6 -4 10 -10 10 -5 0
-10 -4 -10 -10z" id="node11" class="node"></path>
<path d="M1475 711 c-3 -5 -1 -12 5 -16 5 -3 10 1 10 9 0 18 -6 21 -15 7z" id="node12" class="node"></path>
<path d="M1420 700 c0 -5 5 -10 10 -10 6 0 10 5 10 10 0 6 -4 10 -10 10 -5 0
-10 -4 -10 -10z" id="node13" class="node"></path>
<path d="M1550 680 c0 -5 5 -10 10 -10 6 0 10 5 10 10 0 6 -4 10 -10 10 -5 0
-10 -4 -10 -10z" id="node14" class="node"></path>
<path d="M1625 670 c3 -5 8 -10 11 -10 2 0 4 5 4 10 0 6 -5 10 -11 10 -5 0 -7
-4 -4 -10z" id="node15" class="node"></path>
<path d="M1695 670 c-3 -5 -1 -10 4 -10 6 0 11 5 11 10 0 6 -2 10 -4 10 -3 0
-8 -4 -11 -10z" id="node16" class="node"></path>
<path d="M1641 634 c0 -11 3 -14 6 -6 3 7 2 16 -1 19 -3 4 -6 -2 -5 -13z" id="node17" class="node"></path>
<path d="M1240 630 c0 -5 5 -10 10 -10 6 0 10 5 10 10 0 6 -4 10 -10 10 -5 0
-10 -4 -10 -10z" id="node18" class="node"></path>
<path d="M1380 630 c0 -5 5 -10 10 -10 6 0 10 5 10 10 0 6 -4 10 -10 10 -5 0
-10 -4 -10 -10z" id="node19" class="node"></path>
<path d="M1430 614 c0 -8 5 -12 10 -9 6 3 10 10 10 16 0 5 -4 9 -10 9 -5 0
-10 -7 -10 -16z" id="node20" class="node"></path>
<path d="M1190 610 c0 -5 5 -10 11 -10 5 0 7 5 4 10 -3 6 -8 10 -11 10 -2 0
-4 -4 -4 -10z" id="node21" class="node"></path>
<path d="M1668 583 c7 -3 16 -2 19 1 4 3 -2 6 -13 5 -11 0 -14 -3 -6 -6z" id="node22" class="node"></path>
<path d="M1290 564 c0 -8 5 -12 10 -9 6 4 8 11 5 16 -9 14 -15 11 -15 -7z" id="node23" class="node"></path>
<path d="M1395 569 c-4 -6 -5 -13 -2 -16 7 -7 27 6 27 18 0 12 -17 12 -25 -2z" id="node24" class="node"></path>
<path d="M1760 570 c0 -5 7 -10 15 -10 8 0 15 5 15 10 0 6 -7 10 -15 10 -8 0
-15 -4 -15 -10z" id="node25" class="node"></path>
<path d="M1040 560 c0 -5 5 -10 10 -10 6 0 10 5 10 10 0 6 -4 10 -10 10 -5 0
-10 -4 -10 -10z" id="node26" class="node"></path>
<path d="M1605 550 c-3 -5 -1 -10 4 -10 6 0 11 5 11 10 0 6 -2 10 -4 10 -3 0
-8 -4 -11 -10z" id="node27" class="node"></path>
<path d="M1215 530 c-3 -5 3 -10 14 -10 12 0 21 5 21 10 0 6 -6 10 -14 10 -8
0 -18 -4 -21 -10z" id="node28" class="node"></path>
<path d="M1806 532 c-3 -6 -1 -14 5 -17 15 -10 25 3 12 16 -7 7 -13 7 -17 1z" id="node29" class="node"></path>
<path d="M1348 523 c7 -3 16 -2 19 1 4 3 -2 6 -13 5 -11 0 -14 -3 -6 -6z" id="node30" class="node"></path>
<path d="M960 501 c11 -22 30 -29 30 -11 0 5 -9 14 -21 20 -19 11 -20 10 -9
-9z" id="node31" class="node"></path>
<path d="M1145 500 c4 -6 11 -8 16 -5 14 9 11 15 -7 15 -8 0 -12 -5 -9 -10z" id="node32" class="node"></path>
<path d="M1058 488 c9 -9 15 -9 24 0 9 9 7 12 -12 12 -19 0 -21 -3 -12 -12z" id="node33" class="node"></path>
<path d="M1865 480 c-3 -5 -1 -10 4 -10 6 0 11 5 11 10 0 6 -2 10 -4 10 -3 0
-8 -4 -11 -10z" id="node34" class="node"></path>
<path d="M1810 450 c0 -5 7 -10 16 -10 8 0 12 5 9 10 -3 6 -10 10 -16 10 -5 0
-9 -4 -9 -10z" id="node35" class="node"></path>
<path d="M1735 429 c-10 -15 3 -25 16 -12 7 7 7 13 1 17 -6 3 -14 1 -17 -5z" id="node36" class="node"></path>
<path d="M1900 402 c0 -5 7 -13 16 -16 10 -4 14 -1 12 6 -5 15 -28 23 -28 10z" id="node37" class="node"></path>
<path d="M1815 390 c-3 -5 1 -10 10 -10 9 0 13 5 10 10 -3 6 -8 10 -10 10 -2
0 -7 -4 -10 -10z" id="node38" class="node"></path>
<path d="M2021 334 c0 -11 3 -14 6 -6 3 7 2 16 -1 19 -3 4 -6 -2 -5 -13z" id="node39" class="node"></path>
</g>
<g transform="translate(0.000000,223.000000) scale(0.100000,-0.100000)" fill="#FFFFFF" stroke="none">

<path d="M876 2065 c-88 -32 -179 -33 -267 -4 -48 15 -84 20 -144 17 -70 -3
-85 -7 -117 -31 -23 -18 -44 -46 -54 -74 -15 -40 -16 -55 -5 -135 9 -73 21
-109 56 -181 25 -49 54 -104 65 -122 11 -18 33 -76 49 -130 43 -144 76 -164
155 -94 29 25 86 139 86 172 0 4 17 44 39 90 42 90 77 130 193 218 90 69 115
101 131 169 15 65 33 68 28 5 -6 -67 -50 -129 -144 -199 -107 -79 -131 -110
-160 -201 -55 -171 -62 -299 -21 -410 14 -38 41 -117 60 -174 33 -97 34 -106
23 -159 -6 -30 -11 -81 -12 -113 0 -35 -4 -56 -10 -52 -6 4 -7 53 -3 133 6
124 6 130 -21 195 -31 75 -31 75 -58 -47 -27 -127 -30 -182 -10 -254 18 -65
73 -163 114 -198 l21 -19 -16 38 c-20 48 -12 121 19 184 13 26 56 76 104 119
l81 75 -58 28 c-95 48 -142 97 -179 185 -27 65 -32 85 -26 122 9 62 58 159
104 207 51 52 60 73 82 173 22 97 51 153 108 205 49 44 101 67 150 67 109 0
179 -58 232 -192 29 -72 33 -95 34 -175 l0 -93 45 0 c25 0 63 -9 86 -19 l41
-19 32 93 c35 106 38 138 15 195 -23 58 -9 62 34 10 20 -25 65 -75 99 -112
110 -121 177 -278 159 -373 -8 -39 -59 -105 -83 -105 -9 0 -12 -6 -9 -17 3
-10 12 -45 22 -78 24 -85 76 -200 145 -320 34 -59 65 -127 73 -161 l13 -59 19
60 c15 46 19 89 18 185 0 109 -4 135 -27 200 l-27 75 6 -121 c6 -121 0 -189
-16 -179 -5 3 -5 19 0 35 5 17 5 44 -1 62 -5 18 -12 87 -15 153 -6 105 -3 131
17 210 16 65 23 119 23 195 l0 105 -56 102 c-70 128 -88 179 -95 274 -5 63 -2
83 15 122 13 28 27 47 37 47 9 0 15 -3 13 -7 -28 -55 -48 -109 -48 -126 1 -60
44 -189 94 -277 71 -127 75 -145 85 -309 8 -137 9 -145 46 -216 72 -143 100
-139 182 25 29 58 53 112 53 120 0 15 65 127 152 262 57 89 82 175 76 267 -7
130 -78 207 -239 259 -267 86 -392 83 -506 -15 -57 -49 -66 -49 -31 -1 l21 31
-44 -7 c-81 -12 -365 29 -559 80 -52 14 -131 28 -175 31 -73 5 -78 4 -60 -10
30 -23 13 -29 -26 -10 -55 28 -152 27 -233 -2z m502 -86 c-2 -7 -37 -20 -78
-31 -41 -11 -86 -26 -100 -35 -14 -9 -35 -23 -48 -31 -20 -13 -22 -13 -16 1 8
23 65 54 148 82 80 27 99 30 94 14z m488 -217 c56 -56 119 -149 145 -216 32
-79 15 -64 -37 33 -54 102 -130 187 -212 233 -28 16 -49 34 -46 39 9 15 99
-39 150 -89z" id="node41" class="node"></path>
<path d="M1205 1849 c-113 -35 -194 -155 -221 -326 -4 -30 -20 -58 -56 -100
-116 -136 -136 -234 -72 -350 30 -52 49 -73 103 -109 89 -59 122 -65 155 -29
37 40 73 108 84 160 10 45 10 45 -19 45 -21 0 -37 11 -65 46 -35 42 -37 50
-36 107 2 83 46 173 121 252 32 33 75 86 96 118 55 84 70 73 39 -27 -15 -51
-15 -52 18 -152 l34 -100 49 15 c44 14 50 20 57 51 15 72 -9 170 -75 298 -23
44 -68 80 -126 100 -39 14 -45 14 -86 1z" id="node42" class="node"></path>
<path d="M1229 1531 c-58 -51 -105 -132 -120 -206 -11 -53 -10 -65 5 -97 19
-39 64 -65 93 -53 15 5 13 9 -12 19 -60 26 -73 72 -50 172 25 110 73 153 140
128 24 -10 45 -58 45 -104 0 -28 4 -39 11 -34 16 10 4 90 -20 141 -12 23 -21
49 -21 58 0 25 -25 17 -71 -24z" id="node43" class="node"></path>
<path d="M1756 1523 c-43 -121 -56 -193 -36 -193 5 0 12 23 16 52 5 34 15 60
30 75 73 73 172 -35 182 -199 4 -73 3 -78 -22 -103 -15 -15 -25 -33 -22 -41 8
-21 19 -17 50 15 58 60 40 186 -44 314 -39 60 -109 127 -132 127 -3 0 -13 -21
-22 -47z" id="node44" class="node"></path>
<path d="M741 1514 c0 -11 3 -14 6 -6 3 7 2 16 -1 19 -3 4 -6 -2 -5 -13z" id="node45" class="node"></path>
<path d="M1221 1441 c-40 -56 -18 -153 27 -124 23 14 40 117 22 138 -18 21
-26 19 -49 -14z" id="node46" class="node"></path>
<path d="M1796 1424 c-21 -54 8 -128 47 -122 30 4 32 28 6 87 -22 51 -42 64
-53 35z" id="node47" class="node"></path>
<path d="M1367 1342 c-62 -42 -106 -113 -127 -202 -7 -30 -19 -69 -26 -86 -7
-17 -18 -62 -24 -100 -17 -102 -41 -182 -58 -196 -13 -11 -14 -10 -9 7 16 52
38 167 34 172 -3 2 -10 -5 -16 -16 -6 -11 -56 -56 -110 -100 -79 -64 -105 -92
-126 -134 -55 -113 -43 -191 39 -262 28 -25 55 -45 61 -45 5 0 4 4 -4 9 -20
13 -7 37 31 57 26 14 59 18 148 18 105 1 120 4 178 30 104 48 135 106 148 275
7 87 6 89 -30 165 -34 71 -56 95 -56 62 0 -24 -17 -27 -60 -10 -53 21 -80 57
-80 104 0 78 99 130 249 130 77 0 98 -4 153 -29 77 -34 118 -78 118 -127 0
-77 -50 -139 -107 -132 -22 2 -29 9 -31 31 -5 42 -30 31 -73 -31 -40 -57 -49
-94 -50 -212 -1 -100 13 -146 65 -218 61 -83 117 -119 229 -146 92 -23 161
-55 170 -80 6 -16 -8 -40 -20 -33 -4 3 -19 -1 -33 -9 -48 -26 12 -16 68 12 86
43 122 103 122 205 0 62 -11 89 -93 237 -38 70 -76 143 -83 162 -14 34 -14 33
-9 -30 4 -36 8 -76 11 -90 5 -22 4 -23 -6 -6 -17 26 -40 142 -40 202 0 150
-118 327 -265 400 -45 22 -72 27 -157 31 -90 4 -106 2 -131 -15z m273 -432 c0
-5 -5 -10 -11 -10 -5 0 -7 5 -4 10 3 6 8 10 11 10 2 0 4 -4 4 -10z m-40 -80
c0 -5 -4 -10 -10 -10 -5 0 -10 5 -10 10 0 6 5 10 10 10 6 0 10 -4 10 -10z
m-170 -14 c0 -3 -4 -8 -10 -11 -5 -3 -10 -1 -10 4 0 6 5 11 10 11 6 0 10 -2
10 -4z m230 -16 c0 -5 -4 -10 -10 -10 -5 0 -10 5 -10 10 0 6 5 10 10 10 6 0
10 -4 10 -10z m-190 -30 c0 -5 -4 -10 -10 -10 -5 0 -10 5 -10 10 0 6 5 10 10
10 6 0 10 -4 10 -10z m210 -25 c0 -8 -4 -15 -10 -15 -5 0 -10 7 -10 15 0 8 5
15 10 15 6 0 10 -7 10 -15z m-305 -5 c3 -5 -1 -10 -10 -10 -9 0 -13 5 -10 10
3 6 8 10 10 10 2 0 7 -4 10 -10z m195 -10 c0 -5 -4 -10 -10 -10 -5 0 -10 5
-10 10 0 6 5 10 10 10 6 0 10 -4 10 -10z m-80 -26 c0 -8 -5 -12 -10 -9 -6 4
-8 11 -5 16 9 14 15 11 15 -7z m-50 -4 c0 -5 -4 -10 -10 -10 -5 0 -10 5 -10
10 0 6 5 10 10 10 6 0 10 -4 10 -10z m130 -20 c0 -5 -4 -10 -10 -10 -5 0 -10
5 -10 10 0 6 5 10 10 10 6 0 10 -4 10 -10z m70 -10 c0 -5 -2 -10 -4 -10 -3 0
-8 5 -11 10 -3 6 -1 10 4 10 6 0 11 -4 11 -10z m70 0 c0 -5 -5 -10 -11 -10 -5
0 -7 5 -4 10 3 6 8 10 11 10 2 0 4 -4 4 -10z m-63 -42 c-3 -8 -6 -5 -6 6 -1
11 2 17 5 13 3 -3 4 -12 1 -19z m-387 2 c0 -5 -4 -10 -10 -10 -5 0 -10 5 -10
10 0 6 5 10 10 10 6 0 10 -4 10 -10z m140 0 c0 -5 -4 -10 -10 -10 -5 0 -10 5
-10 10 0 6 5 10 10 10 6 0 10 -4 10 -10z m50 -9 c0 -6 -4 -13 -10 -16 -5 -3
-10 1 -10 9 0 9 5 16 10 16 6 0 10 -4 10 -9z m-245 -11 c3 -5 1 -10 -4 -10 -6
0 -11 5 -11 10 0 6 2 10 4 10 3 0 8 -4 11 -10z m482 -26 c-3 -3 -12 -4 -19 -1
-8 3 -5 6 6 6 11 1 17 -2 13 -5z m-382 -13 c3 -5 1 -12 -5 -16 -5 -3 -10 1
-10 9 0 18 6 21 15 7z m115 0 c0 -12 -20 -25 -27 -18 -7 7 6 27 18 27 5 0 9
-4 9 -9z m370 -1 c0 -5 -7 -10 -15 -10 -8 0 -15 5 -15 10 0 6 7 10 15 10 8 0
15 -4 15 -10z m-730 -10 c0 -5 -4 -10 -10 -10 -5 0 -10 5 -10 10 0 6 5 10 10
10 6 0 10 -4 10 -10z m560 -10 c0 -5 -5 -10 -11 -10 -5 0 -7 5 -4 10 3 6 8 10
11 10 2 0 4 -4 4 -10z m-370 -20 c0 -5 -9 -10 -21 -10 -11 0 -17 5 -14 10 3 6
13 10 21 10 8 0 14 -4 14 -10z m577 -16 c-9 -9 -28 6 -21 18 4 6 10 6 17 -1 6
-6 8 -13 4 -17z m-460 10 c-3 -3 -12 -4 -19 -1 -8 3 -5 6 6 6 11 1 17 -2 13
-5z m-377 -34 c0 -18 -19 -11 -30 11 -11 19 -10 20 9 9 12 -6 21 -15 21 -20z
m180 16 c0 -11 -19 -15 -25 -6 -3 5 1 10 9 10 9 0 16 -2 16 -4z m-88 -18 c-9
-9 -15 -9 -24 0 -9 9 -7 12 12 12 19 0 21 -3 12 -12z m798 -8 c0 -5 -5 -10
-11 -10 -5 0 -7 5 -4 10 3 6 8 10 11 10 2 0 4 -4 4 -10z m-45 -30 c3 -5 -1
-10 -9 -10 -9 0 -16 5 -16 10 0 6 4 10 9 10 6 0 13 -4 16 -10z m-84 -33 c-13
-13 -26 -3 -16 12 3 6 11 8 17 5 6 -4 6 -10 -1 -17z m177 -25 c2 -7 -2 -10
-12 -6 -9 3 -16 11 -16 16 0 13 23 5 28 -10z m-93 -2 c3 -5 -1 -10 -10 -10 -9
0 -13 5 -10 10 3 6 8 10 10 10 2 0 7 -4 10 -10z m192 -62 c-3 -8 -6 -5 -6 6
-1 11 2 17 5 13 3 -3 4 -12 1 -19z" id="node48" class="node"></path>
<path d="M1396 1157 c-67 -38 -59 -47 46 -47 53 0 129 -8 178 -19 47 -11 86
-18 88 -16 2 1 -9 16 -23 33 -56 67 -212 94 -289 49z" id="node49" class="node"></path>
<path d="M1496 586 c-22 -56 -86 -109 -159 -131 -31 -9 -91 -15 -154 -15 -132
0 -143 -6 -143 -71 0 -45 4 -54 46 -99 75 -80 142 -88 249 -31 29 16 77 34
105 41 58 14 84 44 95 112 4 21 11 41 17 44 20 13 2 -96 -21 -127 l-22 -29 28
-11 c15 -5 59 -30 99 -55 112 -70 160 -71 235 -6 24 22 57 46 73 54 l30 15
-25 13 c-13 8 -53 20 -89 27 -74 16 -159 52 -207 89 -42 32 -113 135 -128 187
l-11 39 -18 -46z" id="node50" class="node"></path>
<path d="M1420 245 c-25 -7 -65 -24 -90 -39 -25 -14 -53 -26 -63 -26 -31 0
-14 -23 48 -65 l59 -40 156 1 c150 1 158 2 215 29 l60 29 -55 6 c-57 6 -84 17
-135 56 -37 28 -114 64 -135 63 -8 0 -35 -7 -60 -14z" id="node51" class="node"></path>
</g>
</svg>