<?xml version="1.0" encoding="utf-8"?>
<!-- Generator: Adobe Illustrator 26.0.1, SVG Export Plug-In . SVG Version: 6.00 Build 0)  -->
<svg version="1.1" id="Layer_1" xmlns="http://www.w3.org/2000/svg" xmlns:xlink="http://www.w3.org/1999/xlink" x="0px" y="0px"
	 viewBox="0 0 2497.32 2647.56" style="enable-background:new 0 0 2497.32 2647.56;" xml:space="preserve">
<style type="text/css">
	.st0{fill:#FF5800;}
	.st1{opacity:0.3;}
	.st2{opacity:0.6;}
	.st3{opacity:0.2;}
</style>
<g>
	<g>
		<g>
			<g>
				<path class="st0" d="M507.27,2288.63c10.5,73.43,67.16,144.42,67.16,144.42h1209.25c58.94-42.61,112.71-110.82,117.44-176.63
					l0.05-0.05c2.24-30.57-6.12-60.64-29.47-87.37c-73.63-84.28-180.32,7.47-180.32,7.47c133.37-254.94-113.61-571.82-113.61-571.82
					s-0.05-0.05-0.15-0.2c-151.34-173.7-663.57-242.1-725.2-165.38c-3.39,4.23-5.43,8.96-5.92,14.09
					c-5.68,57.85-37.59,138.2-62.88,194.51c-16.63,36.99-38.33,71.29-63.62,102.9c-58.74,73.48-90.26,152.69-106.89,221.09
					c-13.84,56.55-17.47,105.79-17.92,138.35c-0.45,25.99,1.14,41.37,1.14,41.37C516.33,2180.95,499.7,2235.41,507.27,2288.63z"/>
			</g>
			<g>
				<g>
					<circle class="st0" cx="1737.25" cy="2324.36" r="49.07"/>
				</g>
				<g>
					
						<ellipse transform="matrix(0.3827 -0.9239 0.9239 0.3827 -1750.9937 2065.2332)" class="st0" cx="669.92" cy="2342.89" rx="49.07" ry="49.07"/>
				</g>
				<g>
					<circle class="st0" cx="1825.93" cy="2292.62" r="24.67"/>
				</g>
				<g>
					<circle class="st0" cx="1796.33" cy="2235.28" r="24.67"/>
				</g>
				<g>
					<circle class="st0" cx="1729.52" cy="2233.41" r="24.67"/>
				</g>
				<g>
					
						<ellipse transform="matrix(0.3827 -0.9239 0.9239 0.3827 -1647.7144 2014.4003)" class="st0" cx="683.53" cy="2240.19" rx="27.79" ry="27.79"/>
				</g>
				<g>
					
						<ellipse transform="matrix(0.9732 -0.2298 0.2298 0.9732 -515.905 195.6393)" class="st0" cx="582.18" cy="2313.27" rx="27.79" ry="27.79"/>
				</g>
				<g>
					
						<ellipse transform="matrix(0.9732 -0.2298 0.2298 0.9732 -498.4154 199.7025)" class="st0" cx="608.37" cy="2240.19" rx="27.79" ry="27.79"/>
				</g>
			</g>
			<g>
				<path class="st0" d="M613.11,1971.66c23.1,5.82,47.24,8.86,72.09,8.86c163.79,0,296.56-132.77,296.56-296.56
					c0-101.76-51.23-191.52-129.34-244.89c-3.39,4.23-5.43,8.96-5.92,14.09c-5.68,57.85-37.59,138.2-62.88,194.51
					c-16.63,36.99-38.33,71.29-63.62,102.9C661.25,1824.05,629.73,1903.26,613.11,1971.66z"/>
			</g>
			<g class="st1">
				<path class="st0" d="M596.33,2151.38c100.81-136.01,250.16-75.17,250.16-75.17c-16.71-36.62-53.26-56.93-85.35-68.07
					c-39.14-13.58-60.84-56.24-46.55-95.13c20.15-54.84,60.55-98.77,91.35-137.65c22.4-28.27,42.13-63.73,56.26-92.13
					c13.4-26.92,45.63-38.56,73.28-26.73c445.89,190.71,642.29-51.84,642.29-51.84s-0.05-0.05-0.15-0.2
					c-151.34-173.7-663.57-242.1-725.2-165.38c-3.39,4.23-5.43,8.96-5.92,14.09c-5.68,57.85-37.59,138.2-62.88,194.51
					c-16.63,36.99-38.33,71.29-63.62,102.9c-58.74,73.48-90.26,152.69-106.89,221.09C588.26,2073.42,596.33,2151.38,596.33,2151.38z
					"/>
			</g>
			<g class="st1">
				<path class="st0" d="M507.27,2288.63c10.5,73.43,67.16,144.42,67.16,144.42h1209.25c58.94-42.61,112.71-110.82,117.44-176.63
					l-70.75,66.53c-34.47,32.41-80,50.46-127.31,50.46h-25.03c-33.23,0-65.57-10.7-92.24-30.52h0c0,0-18.17,20.26-46.95,0
					c0,0-29.87,15.48-70.39-29.07c0,0-59.04-18.12-37.54-80.4c21.51-62.28,75.92-253.25,39.93-331.66
					c0,0-35.99,309.21-122.42,310.65c0,0-89.56,23.8-233.59-310.5c1.84,5.92,62.03,196.55,138.4,321.5c0,0,15.18,72.78-50.43,64.02
					c0,0-11.2,58.99-99.22,39.88c0,0-105.59,79.6-160.01-235.13c0,0-22.35-75.22-9.61-171.7c0,0-35.32,169.07,0.62,341.9
					c10.1,48.57-23.91,95.39-73.2,100.94c-39.9,4.49-96.34,8.3-176.06,9.81c-55.77,1.05-110.24-18.83-151.06-56.84
					C525.04,2307.7,515.85,2298.42,507.27,2288.63z"/>
			</g>
			<g class="st1">
				<path class="st0" d="M596.33,2151.38c0,0,169.07-40.52,202.12,182.96c0,0,33.01-233.59-203.27-224.33
					C594.74,2136,596.33,2151.38,596.33,2151.38z"/>
			</g>
			<g class="st1">
				<path class="st0" d="M1243.86,2207.63c0,0-15.07,36.18-42.67,32.98c-6.66-0.77-11.99-2.01-16.24-3.44
					c-7.4-2.49-15.02,2.82-15.68,10.6c-1.2,14.14-6.04,30.57-21.68,33.65c-21.34,4.21-44.95-8.38-59.95-20.55
					c-6.78-5.51-17.04-2.54-19.39,5.88c-0.04,0.15-0.08,0.29-0.12,0.44c-1.38,5.08-8.12,6.18-11.11,1.85
					c-25.11-36.36-92.18-148.68-123.06-348.55c0,0-26.29,229.59,104.73,403.87c0,0,31.28,28.99,64.88,2.96
					c0,0,69.27,22.09,99.22-39.88C1202.8,2287.44,1273.73,2284.13,1243.86,2207.63z"/>
			</g>
			<g class="st1">
				<path class="st0" d="M1638.84,2291.02c0,0-52.38,34-65.74,6.59c-2.85-5.84-10.6-7.42-15.87-3.62
					c-9.07,6.55-21.88,11.8-34.81,3.83c-12.05-7.43-15.93-19.59-16.81-29.87c-0.78-9.11-6.04-17.58-14.6-20.79
					c-9.46-3.54-18.42-12.37-11.52-34.16c12.53-39.6,44.96-242.44-8.66-311.25c0,0,31.78,69.29-5.59,207.74
					c0,0-82.13,188.06,3.2,204.32c0,0,20.78,53.6,79.19,28C1547.63,2341.82,1599.64,2378.63,1638.84,2291.02z"/>
			</g>
			<g>
				<path class="st0" d="M574.45,2452.95h1209.21c4.19,0,8.27-1.32,11.66-3.77c54.8-39.58,116.45-108.93,125.13-184.86
					c4.61-40.35-7.07-77.84-33.77-108.41c-46.58-53.35-106.69-48.35-153.62-28.29c30.89-98.58,20.84-214.81-30.02-340.16
					c-45.58-112.36-106.96-191.73-109.55-195.05c-0.22-0.28-0.45-0.55-0.68-0.82c-62.68-72.12-193.21-135.16-358.13-172.95
					c-143.17-32.81-285.94-39.99-355.22-17.88c-40.84,13.03-51.26,34.64-52.81,50.47c-5.37,54.92-36.26,132.71-61.22,188.29
					c-15.18,33.79-35.7,66.97-60.99,98.61c-128.98,161.32-131.35,346.42-128.95,400.22c-45.27,19.98-73.76,50.1-84.79,89.72
					c-26.92,96.7,64.29,212.5,68.18,217.38C562.66,2450.19,568.39,2452.95,574.45,2452.95z M1777.12,2413.12H584.43
					c-18.19-25.27-73.51-109.39-55.35-174.43c8.63-30.91,32.88-53.36,74.14-68.61c8.52-3.16,13.83-11.68,12.9-20.73
					c-0.21-2.08-19.65-212.4,119.42-386.34c27.39-34.25,49.66-70.31,66.22-107.16c26.19-58.3,58.64-140.44,64.54-200.73
					c0.38-3.97,7.24-10.66,25.28-16.41c123.47-39.4,539.93,28.79,670.79,178.57c9.6,12.59,235.12,313.37,111.37,549.97
					c-4.42,8.46-2.22,18.88,5.27,24.82c7.48,5.95,18.11,5.74,25.37-0.49c3.72-3.18,92.69-77.73,152.31-9.47
					c19.41,22.22,27.55,48.36,24.2,77.69C1875.11,2310.26,1834.62,2369.89,1777.12,2413.12z"/>
			</g>
			<g>
				<path class="st0" d="M1672.59,2169.89c-6.68,18.56-14.26,37.59-22.31,55.9c-8.09,18.36-16.77,36.43-26.47,53.33
					c-2.45,4.2-4.85,8.45-7.5,12.34l-3.87,5.98l-4.08,5.51c-2.65,3.9-5.55,6.82-8.33,10.05c-0.69,0.88-1.39,1.5-2.09,2.05
					l-2.05,1.78l-2.01,1.84c-0.73,0.62-1.73,1.21-2.58,1.82c-7.02,5.01-14.38,8.65-20.31,9.9c-2.92,0.58-5.4,0.64-7.12,0.25
					c-0.84-0.21-1.63-0.41-2.15-0.74c-0.28-0.12-0.53-0.3-0.67-0.4c-0.07-0.06-0.17-0.1-0.11-0.08c0.03,0.02-0.06-0.03,0.09,0.1
					c0.14,0.16,0-0.03,0.73,0.85l-26.44-4.09c0.34-0.22,0.13-0.1-0.06,0c-0.15,0.09-0.33,0.19-0.59,0.31
					c-0.48,0.23-0.91,0.48-1.47,0.69c-1.03,0.49-2.16,0.84-3.27,1.23c-2.25,0.65-4.52,1.15-6.71,1.26c-4.41,0.3-8.48-0.46-12.55-2.2
					c-4.04-1.88-8.07-5.06-11.96-9c-1.9-2.07-3.68-4.51-5.56-6.74l-5.06-7.9l-21.9-9.46l0.02-0.01c0.59-0.14,0.01-0.03-0.1-0.03
					l-0.82,0.07c-0.58,0.04-1.22,0.06-1.83,0.04c-1.24-0.01-2.46-0.13-3.53-0.35c-2.21-0.41-3.79-1.12-5.01-1.94
					c-1.23-0.84-2.25-1.88-3.29-3.64c-1.04-1.74-2.05-4.14-2.81-7.05c-1.45-5.97-1.71-13.6-1.29-21.54
					c0.48-7.98,1.62-16.34,3.43-24.79c0.76-4.2,1.92-8.48,2.81-12.74l3.39-12.94c2.41-9.17,5.02-18.28,7.26-27.48
					c4.42-18.42,8.57-36.89,12.08-55.49c6.84-37.21,12.38-74.73,13.9-112.73c0.43-9.47,0.35-19.04,0.32-28.53
					c-0.51-9.56-0.75-19.07-1.95-28.6c-0.43-4.74-1.19-9.5-2-14.24c-0.37-2.37-0.78-4.72-1.23-7.07l-1.75-7.03
					c-0.62-2.33-1.08-4.66-1.83-6.95l-2.48-6.8c-1.33-4.57-4.19-8.72-6.25-12.84c3.7,18.53,2.29,36.82,0.71,55.08
					c-1.71,18.23-4.49,36.4-7.67,54.48c-6.16,36.18-13.83,72.18-23.3,107.71c-4.48,17.82-9.59,35.48-14.91,53.04
					c-2.53,8.82-5.42,17.53-8.1,26.29c-2.84,9.09-5.83,18.65-7.97,28.4c-2.29,9.73-3.98,19.85-4.85,30.45
					c-0.83,10.62-0.71,21.84,2.12,34.05c1.55,6.12,3.86,12.52,7.67,18.74c3.8,6.2,9.33,12.11,15.95,16.3
					c6.6,4.25,13.98,6.77,21,7.69c3.53,0.51,6.99,0.67,10.4,0.56c1.72-0.05,3.41-0.17,5.15-0.37l2.64-0.36
					c1.04-0.18,1.61-0.26,3.34-0.66l0.05-0.01l-21.89-9.46l7.26,11.31c2.92,3.65,5.7,7.34,8.95,10.85
					c6.73,6.93,14.69,13.44,24.52,17.96c9.84,4.41,21.14,6.46,31.91,5.63c5.4-0.36,10.62-1.45,15.65-2.97
					c2.5-0.83,4.98-1.68,7.41-2.78c1.21-0.49,2.46-1.13,3.68-1.74c0.6-0.29,1.25-0.64,1.93-1.03c0.64-0.36,1.26-0.7,2.4-1.44
					l-26.44-4.09c1.15,1.38,1.47,1.63,2.06,2.25c0.59,0.61,1,0.96,1.51,1.41c0.99,0.91,1.93,1.63,2.89,2.35
					c1.93,1.43,3.87,2.64,5.87,3.68c3.99,2.16,8.17,3.51,12.33,4.44c8.36,1.8,16.37,1.27,23.5-0.16
					c14.24-3.11,25.37-9.47,35.12-16.25c1.24-0.88,2.45-1.62,3.71-2.64l3.79-3.26c2.38-2.19,5.3-4.4,7.15-6.66
					c4.02-4.5,8.23-9.05,11.41-13.66l5.09-6.91l4.53-6.97c3.13-4.64,5.8-9.34,8.53-14.04c10.79-18.81,19.92-37.91,28.43-57.2
					c8.5-19.37,16.18-38.6,23.43-58.76L1672.59,2169.89z"/>
			</g>
			<g>
				<path class="st0" d="M1554.4,2346.09c3.2-5.5,5.65-11.02,8.03-16.76c2.29-5.74,4.35-11.61,6.11-17.62
					c1.73-6.01,3.33-12.13,4.1-18.55c0.79-6.29,1.02-13.26-1.09-19.61c-3.54,5.53-7.43,9.92-11.12,14.66
					c-3.78,4.63-7.21,9.34-10.84,14l-10.68,14.02c-3.44,4.69-6.96,9.51-9.96,14.22L1554.4,2346.09z"/>
			</g>
			<g>
				<path class="st0" d="M1484.38,2320.09c3.73-12.45,7.14-24.96,10.14-37.68c1.56-6.33,3.05-12.69,4.33-19.13
					c1.31-6.42,2.4-12.96,3-19.6c-8.15,10.48-15.69,21.01-22.98,31.73c-7.44,10.62-14.63,21.38-21.61,32.15L1484.38,2320.09z"/>
			</g>
			<g>
				<path class="st0" d="M599.78,2171.01c0.51-0.09,2.12-0.32,3.32-0.45c1.31-0.15,2.65-0.28,4.03-0.37
					c2.73-0.19,5.52-0.36,8.32-0.46c5.61-0.15,11.29-0.09,16.94,0.36c11.31,0.87,22.54,2.82,33.45,5.89
					c21.84,6.1,42.18,17.21,59.65,32.54c8.61,7.8,16.57,16.52,23.82,25.99c3.38,4.91,7.05,9.68,10.04,14.94
					c1.57,2.58,3.3,5.08,4.78,7.74l4.37,8.04c11.73,21.54,20.87,44.96,29.98,69.12c0.52-25.84-3.4-51.87-11.97-76.91
					c-8.51-25.03-21.93-49.02-40.36-69.64c-18.59-20.41-42.52-36.75-69.02-46.29c-13.22-4.78-26.96-8.17-40.92-9.75
					c-6.97-0.88-14-1.29-21.08-1.41c-3.54-0.06-7.1,0-10.7,0.24c-1.79,0.1-3.61,0.24-5.46,0.42c-1.96,0.2-3.5,0.35-6.12,0.77
					L599.78,2171.01z"/>
			</g>
			<g>
				<path class="st0" d="M631.48,2159.36c0.78-1.36,2.29-3.85,3.6-5.81c1.37-2.07,2.74-4.21,4.21-6.28
					c2.91-4.17,5.97-8.29,9.16-12.3c6.43-7.99,13.3-15.65,20.74-22.64c14.81-14.1,31.79-25.61,50.56-33.54
					c18.83-7.8,39.47-11.49,60.9-11.59c21.46-0.03,43.48,3.64,65.83,8.98c-18.65-13.42-40.3-23.15-63.69-28.37
					c-23.39-5.17-48.69-4.49-72.71,1.94c-24.03,6.46-46.48,18.6-65.62,34.18c-9.57,7.82-18.43,16.44-26.44,25.78
					c-3.99,4.68-7.86,9.48-11.41,14.56c-1.79,2.53-3.57,5.07-5.23,7.76c-1.74,2.79-3.17,5.12-5.1,8.71L631.48,2159.36z"/>
			</g>
			<g>
				<path class="st0" d="M1114.78,1901.77c3.55,28.06,10.36,55.05,18.27,81.62c7.99,26.55,17.76,52.44,27.26,78.49
					c9.52,26.04,19.82,51.8,30.63,77.49c2.63,6.44,5.44,12.83,8.34,19.19c2.89,6.37,5.63,12.77,8.71,19.1l9.09,19.03l9.76,18.88
					l-0.94-1.94c0.48,1.25,1.31,3.57,1.89,5.46c0.64,2,1.22,4.04,1.76,6.06c1.05,4.07,1.89,8.15,2.44,12.1
					c1.19,7.87,1.08,15.46-0.47,20.39c-1.74,4.96-3.13,6.62-7.21,8.78c-4.34,1.86-11.49,3.13-19.5,2.73h-0.01l-20.7,15.72
					c0.1-0.46,0-0.07-0.08,0.18c-0.05,0.22-0.17,0.53-0.3,0.87c-0.22,0.64-0.46,1.31-0.8,2c-0.53,1.39-1.37,2.74-2.08,4.1
					c-0.91,1.25-1.61,2.67-2.67,3.78l-1.43,1.81l-1.64,1.58c-4.35,4.25-9.84,7.23-16.32,9.1c-6.35,2.13-14.13,2.07-21.85,2.01
					c-4.02-0.52-8.03-0.91-12.09-1.51l-12.37-2.73h-0.01l-15.88,2.46c0.22-0.15-0.23,0.1-0.53,0.26c-0.28,0.16-0.69,0.35-1.08,0.53
					c-0.75,0.38-1.57,0.73-2.43,1.06c-1.65,0.73-3.46,1.25-5.2,1.78c-3.54,1-7.09,1.51-10.51,1.7c-6.89,0.36-13.18-1.12-19.18-4.42
					c-5.99-3.35-11.65-8.62-16.83-15.01c-1.28-1.62-2.39-3.53-3.63-5.25c-1.21-1.87-2.45-3.28-3.68-5.52
					c-2.43-4.28-4.97-8.43-7.32-12.8c-9.55-17.4-18.14-35.72-26.27-54.18l-5.96-13.94l-5.56-14.12
					c-3.92-9.34-7.13-18.95-10.69-28.44c-13.34-38.26-24.14-77.51-30.82-117.47c-0.77-5-1.76-9.99-2.49-15l-2.01-15.06
					c-1.69-10.05-2.35-20.13-3.68-30.27l-0.93-7.62l-0.47-7.63l-1.32-15.38c-0.88-10.3-0.82-20.61-2.03-31.26
					c-3.37,9.94-6.49,20.15-8.7,30.51c-1.69,10.38-4.03,20.9-4.57,31.46c-0.82,10.56-1.68,21.22-1.26,31.8l0.37,15.92
					c0.24,5.3,0.82,10.55,1.29,15.83c3.97,42.2,12.03,83.99,23.98,124.61c6.02,20.3,12.49,40.49,20.35,60.22
					c7.72,19.79,15.97,39.38,25.98,58.52c2.44,4.81,5.17,9.58,7.75,14.37c1.2,2.34,3.15,5.05,4.71,7.55
					c1.69,2.54,3.23,5.11,5.12,7.57c7.69,9.8,17.1,19.19,29.21,26.05c12.05,6.94,26.81,10.15,40.58,9.33
					c6.92-0.35,13.64-1.58,20.03-3.55c3.19-1.02,6.33-2.08,9.4-3.48c1.53-0.65,3.08-1.36,4.63-2.17c0.77-0.39,1.53-0.76,2.37-1.25
					c0.83-0.47,1.52-0.83,2.84-1.67l-15.88,2.46l0.01,0l15.76,3.48c5.42,0.84,10.98,1.42,16.49,2.03
					c11.4,0.25,23.13,0.26,35.22-3.44c11.94-3.35,23.87-9.67,33.25-18.9l3.47-3.48l3.1-3.79c2.14-2.48,3.78-5.29,5.57-8
					c1.59-2.84,3.18-5.66,4.45-8.72c0.68-1.48,1.29-3.06,1.85-4.69c0.29-0.79,0.57-1.6,0.84-2.55c0.26-0.91,0.52-1.67,0.88-3.29
					l-20.7,15.72h0.01c11.54,0.76,24.54,0.54,38.41-5.25c6.88-2.98,13.77-7.78,19.09-13.98c5.38-6.17,8.89-13.49,10.92-20.42
					c3.97-14.03,3.27-26.61,1.55-38.1c-0.93-5.77-2.21-11.31-3.75-16.72c-0.78-2.7-1.6-5.38-2.53-8.04
					c-0.96-2.77-1.79-5.09-3.16-8.38l-0.03-0.07c-0.26-0.62-0.6-1.3-0.92-1.87c-13.15-23.21-25.45-47.52-37.42-72
					c-12.16-24.43-23.47-49.4-35.13-74.25c-11.68-24.85-22.35-50.16-34.37-74.97C1142.96,1950.02,1130.13,1925.49,1114.78,1901.77z"
					/>
			</g>
			<g>
				<path class="st0" d="M1216.83,2282.15c-3.87-5.42-7.76-10.78-11.81-16.07c-3.97-5.34-8.17-10.54-12.27-15.81
					c-4.13-5.25-8.42-10.4-12.69-15.57c-4.36-5.1-8.78-10.22-13.54-15.03l5.6,19.31l5.8,19.12c2.03,6.32,3.92,12.72,6.03,18.99
					c2.03,6.32,4.19,12.57,6.36,18.79L1216.83,2282.15z"/>
			</g>
			<g>
				<path class="st0" d="M1120.24,2317.81l-27.66-36.87c-4.53-6.21-9.31-12.31-13.79-18.59c-4.56-6.25-9.15-12.41-13.09-19.21
					c0.53,7.92,2.62,15.67,4.62,23.3c2.23,7.55,4.5,15.11,7.12,22.5c2.6,7.39,5.18,14.81,8.05,22.07
					c2.78,7.34,5.76,14.49,8.89,21.74L1120.24,2317.81z"/>
			</g>
			<g>
				<g>
					<path class="st0" d="M493.28,1201.5c0,132.3,51.79,239.85,139.79,321.44c10.71,10.01,21.99,19.51,33.73,28.72
						c0,0,0,0.05,0.05,0.05c44.77,34.99,96.93,64.37,154.9,88.14c96.23,39.39,208.56,63.2,329.72,70.92h0.05
						c28.96,1.87,58.43,2.76,88.28,2.76c182.92,0,350.49-34.67,480.31-102.59c33.5-17.54,64.47-37.29,92.58-59.23
						c0.05,0,0.05-0.05,0.05-0.05c13.71-10.67,26.71-21.89,38.97-33.64c35.55-33.96,64.93-72.28,87.11-114.9
						c30.69-59.09,47.53-126.36,47.53-201.63c0-67.93-14.17-134.5-40.09-197.51c-5.33-46.27-10.81-92.11-16.7-137.4
						c-21.38-162.99-49.03-319.24-99.41-463.24c-26.48-75.51-117.33-105.4-182.87-59.65c-94.03,65.78-185.07,158.36-237.37,235.6
						l6.18,4.91c-30.97-7.06-62.69-12.44-94.97-16.05c-30.36-3.32-61.14-5.05-92.44-5.05c-56.28,0-110.83,5.61-163.18,16.19
						c-52.3-77.24-143.34-169.82-237.37-235.6c-65.54-45.75-156.44-15.86-182.87,59.65c-20.72,59.23-37.66,120.56-51.79,183.62
						c-30.17,134.03-48.09,275.69-64.84,421.27l1.12-0.89c-6.64,17.5-12.49,35.23-17.36,53.24
						C499.83,1106.35,493.28,1153.55,493.28,1201.5z"/>
				</g>
				<g>
					<path class="st0" d="M1239.79,1716.02c186.35,0,352.84-35.57,481.46-102.88c33.52-17.56,64.56-37.38,92.29-58.94h1.63l0.02-1.3
						c13.35-10.44,26.21-21.56,38.22-33.07c36.25-34.62,65.72-73.5,87.59-115.55c31.73-61.08,47.81-129.31,47.81-202.78
						c0-66.59-13.51-133.25-40.15-198.14c-6.22-53.97-11.52-97.55-16.67-137.1c-18.61-141.83-44.98-307.83-99.53-463.74
						c-12.96-36.95-41.7-65.02-78.85-77c-36.81-11.88-76.1-5.99-107.79,16.13c-90.07,63-183.49,155.73-238.01,236.24l-1.14,1.68
						c-28-6.03-56.65-10.7-85.32-13.89c-30.75-3.36-61.94-5.07-92.72-5.07c-54.69,0-109.2,5.35-162.05,15.91
						c-54.64-80.18-147.52-172.22-237.08-234.87c-31.7-22.14-71.02-28.01-107.85-16.12c-37.14,11.99-65.87,40.05-78.79,76.99
						c-19.95,57.01-36.91,117.16-51.87,183.89c-30.93,137.36-49.01,283.56-64.88,421.53l-0.31,2.73
						c-6.18,16.64-11.51,33.2-15.85,49.26c-12.72,46.42-19.17,94.05-19.17,141.56c0,128.01,47.3,236.77,140.58,323.26
						c9.92,9.28,20.71,18.48,32.93,28.12v1.28l1.66,0.03c44.02,34.3,96.11,63.89,154.83,87.97c96.09,39.33,207.28,63.25,330.5,71.1
						C1179.75,1715.1,1209.51,1716.02,1239.79,1716.02z M1810.24,1550.46c-27.43,21.3-58.14,40.91-91.3,58.27
						c-127.92,66.94-293.6,102.31-479.16,102.31c-30.18,0-59.82-0.93-88.12-2.76c-122.73-7.82-233.41-31.62-328.99-70.74
						c-58.18-23.86-109.79-53.15-153.4-87.09l-0.95-0.75c-12.5-9.82-23.48-19.16-33.57-28.59c-92.24-85.52-139-193.05-139-319.62
						c0-47.06,6.39-94.25,19-140.25c4.67-17.27,10.48-35.11,17.28-53.01l3.2-8.44l-3.5,2.77c15.69-136.08,33.68-279.9,64.11-415.05
						c14.91-66.54,31.82-126.52,51.7-183.34c12.41-35.45,39.98-62.38,75.63-73.89c35.34-11.42,73.05-5.78,103.47,15.47
						c89.61,62.68,182.53,154.9,236.74,234.95l0.93,1.37l1.62-0.33c53.03-10.71,107.77-16.14,162.69-16.14
						c30.6,0,61.61,1.7,92.17,5.04c31.88,3.56,63.74,8.94,94.69,16l10.65,2.43l-12.92-10.28c54.38-79.6,146.55-170.86,235.44-233.04
						c30.41-21.23,68.11-26.87,103.41-15.48c35.66,11.5,63.25,38.44,75.69,73.91c54.4,155.48,80.72,321.17,99.29,462.74
						c5.15,39.6,10.46,83.25,16.7,137.36l0.17,0.66c26.48,64.38,39.91,130.51,39.91,196.56c0,72.67-15.9,140.12-47.25,200.49
						c-21.62,41.56-50.77,79.99-86.62,114.25c-12.17,11.66-25.22,22.92-38.78,33.47L1810.24,1550.46z"/>
				</g>
			</g>
			<g>
				<path class="st0" d="M787.12,1619.17c0,0,13.14,7.81,34.62,20.68c96.23,39.39,208.56,63.2,329.72,70.92h0.05
					c28.96,1.87,58.43,2.76,88.28,2.76c182.92,0,350.49-34.67,480.31-102.59c30.88-94.22-51.79-161.26-185.82-204.16
					c-50.62-16.19-90.24-56.61-102.97-108.21c-52.58-213.09-305.77-213.09-358.35,0c-12.72,51.6-52.35,92.02-102.97,108.21
					C832.08,1450.9,748.53,1520.6,787.12,1619.17z"/>
			</g>
			<g class="st1">
				<path class="st0" d="M1940.54,1180.99c0,75.28-16.82,142.56-47.54,201.64c-22.15,42.61-51.54,80.92-87.08,114.87
					c-12.26,11.74-25.28,22.97-38.97,33.64c0,0,0,0.05-0.05,0.05c-136.92,106.97-342.76,161.84-572.91,161.84
					c-29.85,0-59.33-0.92-88.26-2.77h-0.05c-108.72-6.92-210.25-26.77-299.53-59.33c-49.69-22.05-94.77-48.51-134.15-79.23
					c-0.05,0-0.05-0.05-0.05-0.05c-11.74-9.18-23.03-18.72-33.74-28.72c-8.46-7.85-16.62-15.95-24.41-24.31
					c111.54,62.77,253.28,99.64,409.84,109.59h0.05c28.92,1.85,58.41,2.77,88.25,2.77c230.15,0,435.99-54.87,572.91-161.84
					c0.05,0,0.05-0.05,0.05-0.05c13.69-10.67,26.72-21.9,38.97-33.64c35.54-33.95,64.92-72.26,87.08-114.87
					c30.72-59.08,47.54-126.36,47.54-201.64c0-67.95-14.15-134.51-40.1-197.54c-5.33-46.26-10.77-92.1-16.67-137.38
					c-20.31-154.82-46.26-303.53-92.05-441.48c10-0.92,20.05-0.62,29.85,0.92c19.9,13.95,40.71,29.15,50.24,54.19
					c50.72,133.26,78.61,306.25,100,469.22c5.9,45.28,11.76,90.49,17.09,136.75C1932.8,1046.65,1940.54,1113.04,1940.54,1180.99z"/>
			</g>
			<g class="st2">
				<path class="st0" d="M833.22,343.72c8,5.59,15.95,11.38,23.9,17.33c-63.33-30.41-141.54,0.46-165.74,69.64
					c-64.82,185.28-92.05,390.87-116.61,604.86l1.13-0.87c-23.69,62-36.46,127.38-36.46,194.15c0,132.31,51.79,239.84,139.79,321.43
					c10.72,10,22,19.54,33.74,28.72c0,0,0,0.05,0.05,0.05c4.77,3.74,9.64,7.44,14.62,11.03c-19.59-11.95-38.2-24.72-55.64-38.36
					c-0.05,0-0.05-0.05-0.05-0.05c-11.74-9.18-23.03-18.72-33.74-28.72c-88-81.59-139.79-189.13-139.79-321.43
					c0-66.77,12.77-132.15,36.46-194.15l-1.13,0.87c24.56-214,51.79-419.58,116.61-604.86
					C676.82,327.82,767.69,297.93,833.22,343.72z"/>
			</g>
			<g class="st2">
				<path class="st0" d="M1807.26,358.23c-35.95-14.56-78.56-11.85-113.84,12.82c-83.28,58.21-164.18,137.49-217.94,208.51
					c-12.27,16.21-32.6,23.87-52.65,20.52c-0.11-0.02-0.22-0.04-0.33-0.06h-0.05c-3.08-5.69-6.46-11.79-9.74-17.69
					c2.82,0.62,5.69,1.23,8.51,1.9l-6.2-4.92c52.31-77.23,143.33-169.84,237.38-235.59C1702.6,308.64,1767.67,317.98,1807.26,358.23
					z"/>
			</g>
			<g>
				<g>
					<path class="st0" d="M877.89,644.79c-31.59-57.85-72.46-112.66-101.9-149.23c-15.64-19.49-46.87-12.36-52.56,12
						c-14.36,61.38-34.56,164.97-37.49,272.56v0.05"/>
				</g>
				<g>
					<path class="st0" d="M685.95,780.17h2.49c2.84-104.8,21.92-205.79,37.43-272.04c2.42-10.35,10.35-18.24,20.71-20.59
						c10.47-2.38,20.76,1.2,27.49,9.58c28.87,35.86,69.94,90.79,101.65,148.86l4.37-2.38c-31.88-58.4-73.14-113.58-102.14-149.59
						c-7.83-9.76-20.29-14.1-32.47-11.32c-12.23,2.78-21.6,12.1-24.45,24.31c-15.55,66.48-34.69,167.82-37.55,273.06L685.95,780.17z
						"/>
				</g>
			</g>
			<g class="st2">
				<path class="st0" d="M905.23,675.07l-135.1,90.26c-23.81,15.91-53.51,20.29-80.9,11.92h0l188.66-132.46
					c-31.59-57.85-72.46-112.67-101.9-149.23c-0.1-0.15-0.21-0.26-0.36-0.36c11.38-13.79,33.95-15.28,46.51,0.36
					c24.41,30.32,63.09,81.1,93.6,130.54C925.96,642.65,921.39,664.27,905.23,675.07z"/>
			</g>
			<g class="st1">
				<path class="st0" d="M787.38,509.87c-1.03,2.05-1.85,4.26-2.41,6.67c-11.9,50.92-27.85,130.97-34.61,218.2l-64.41,45.44v-0.05
					c2.92-107.59,23.13-211.18,37.49-272.56c5.69-24.36,36.92-31.49,52.56-12C779.64,500.08,783.43,504.85,787.38,509.87z"/>
			</g>
			<g>
				<g>
					<path class="st0" d="M1799.68,780.18v-0.05c-2.92-107.59-23.13-211.18-37.49-272.56c-5.69-24.36-36.92-31.49-52.56-12
						c-29.44,36.56-70.31,91.38-101.9,149.23"/>
				</g>
				<g>
					<path class="st0" d="M1797.19,780.19l4.98-0.07c-2.86-105.29-22-206.64-37.55-273.13c-2.86-12.22-12.23-21.53-24.46-24.31
						c-12.2-2.77-24.65,1.57-32.47,11.32c-29,36.02-70.26,91.21-102.14,149.59l4.37,2.38c31.71-58.06,72.78-112.99,101.65-148.86
						c6.73-8.38,16.98-11.96,27.49-9.58c10.36,2.35,18.29,10.24,20.71,20.59C1775.26,574.4,1794.34,675.4,1797.19,780.19z"/>
				</g>
			</g>
			<g class="st2">
				<path class="st0" d="M1799.68,786.62L1799.68,786.62l-0.42-19.37c-4.1-102.92-23.28-200.77-37.08-259.69
					c-1.03-4.51-2.97-8.41-5.49-11.69c15.54-4.67,33.74,3.9,37.95,21.95c12.87,55.03,30.44,143.97,36.05,239.31
					C1831.71,774.49,1816.95,788.62,1799.68,786.62z"/>
			</g>
			<g class="st1">
				<path class="st0" d="M1767.62,531.62c-1.79,1.38-3.49,3.08-5.03,4.97c-28.97,36-69.08,89.74-100.41,146.61l-54.46-38.41
					c31.59-57.85,72.46-112.67,101.9-149.23c15.64-19.49,46.87-12.36,52.56,12C1763.93,515,1765.72,523,1767.62,531.62z"/>
			</g>
			<g>
				<path class="st0" d="M1336.62,1256.3c-0.05,20.62-28.5,37.26-63.55,37.17c-35.05-0.09-63.42-16.87-63.37-37.48
					c0.05-20.62,28.47-22.33,63.52-22.24C1308.26,1233.83,1336.67,1235.68,1336.62,1256.3z"/>
			</g>
			<g>
				<path class="st0" d="M1409.29,1277.36c-4.75,14.8-11.16,28.55-21.04,37.26c-9.5,8.99-21.61,12.56-33.94,11.88
					c-12.35-0.58-24.86-5.54-35.25-13.01c-5.2-3.76-9.97-8.11-13.94-13.04l-2.89-3.75l-3.15-4.66c-5.53-8.2-15.48-13.12-24.87-13.01
					c-9.39-0.14-19.36,4.72-24.93,12.9l-3.17,4.64l-2.9,3.75c-4,4.92-8.79,9.24-14,12.99c-10.44,7.4-22.96,12.34-35.33,12.84
					c-12.35,0.62-24.44-3.02-33.91-12.06c-9.84-8.77-16.18-22.56-20.83-37.38l-0.05-0.15c-0.86-2.73-3.77-4.26-6.51-3.4
					c-2.14,0.67-3.54,2.62-3.63,4.74c-0.71,16.75,2.55,35.01,13.62,50.9c5.57,7.79,13.14,14.56,21.89,19.43
					c8.77,4.88,18.68,7.45,28.49,8.26c19.78,1.61,39.05-4.29,55.3-14.39c8.16-5.08,15.52-11.43,21.96-18.67
					c1.56-1.86,3.09-3.75,4.57-5.66l2.1-2.99l1.04-1.5c0.33-0.49,0.84-1.22,0.55-0.74c-1.03,1.52-2.98,2.44-4.35,2.38
					c-1.37,0.06-3.33-0.87-4.35-2.4c-0.29-0.48,0.22,0.26,0.54,0.74l1.04,1.5l2.09,2.99l4.53,5.7c6.41,7.27,13.75,13.65,21.87,18.79
					c16.2,10.17,35.44,16.2,55.24,14.67c9.82-0.75,19.74-3.3,28.55-8.12c8.78-4.83,16.38-11.58,22-19.34
					c11.15-15.84,14.49-34.1,13.84-50.85c-0.11-2.87-2.52-5.1-5.39-4.99c-2.24,0.09-4.09,1.58-4.74,3.59L1409.29,1277.36z"/>
			</g>
			<g>
				
					<ellipse transform="matrix(2.437106e-03 -1 1 2.437106e-03 -211.9619 2093.3557)" class="st0" cx="943.25" cy="1152.92" rx="152.47" ry="120.2"/>
			</g>
			<g>
				<path class="st0" d="M943.11,1320.95c74.74,0,135.68-75.16,135.9-167.7c0.22-92.65-60.49-168.18-135.35-168.37
					c-0.09,0-0.18,0-0.27,0c-74.74,0-135.68,75.16-135.9,167.7c-0.11,44.21,13.48,85.95,38.26,117.54
					c25.64,32.69,60.12,50.74,97.1,50.82C942.93,1320.95,943.03,1320.95,943.11,1320.95z M943.39,1016.02c0.07,0,0.13,0,0.19,0
					c57.69,0.15,104.48,61.67,104.3,137.15c-0.18,75.4-47.16,136.64-104.76,136.65c-0.07,0-0.13,0-0.19,0
					c-27.24-0.07-53.05-13.89-72.67-38.9c-20.48-26.11-31.71-61-31.63-98.25C838.81,1077.26,885.79,1016.02,943.39,1016.02z"/>
			</g>
			<g>
				
					<ellipse transform="matrix(2.437142e-03 -1 1 2.437142e-03 -207.103 2127.7283)" class="st0" cx="962.91" cy="1167.67" rx="124.47" ry="96.3"/>
			</g>
			<g>
				
					<ellipse transform="matrix(2.441582e-03 -1 1 2.441582e-03 -187.1562 2063.0208)" class="st0" cx="940.45" cy="1125.32" rx="33.03" ry="22.56"/>
			</g>
			<g>
				
					<ellipse transform="matrix(1 -2.438667e-03 2.438667e-03 1 -2.8068 3.8965)" class="st0" cx="1596.39" cy="1152.92" rx="120.2" ry="152.47"/>
			</g>
			<g>
				<path class="st0" d="M1596.53,1320.95c0.09,0,0.18,0,0.27,0c36.97-0.09,71.46-18.14,97.09-50.82
					c24.78-31.6,38.37-73.34,38.26-117.55l0,0c-0.23-92.54-61.17-167.7-135.9-167.7c-0.09,0-0.18,0-0.27,0
					c-74.86,0.18-135.58,75.71-135.35,168.37C1460.85,1245.79,1521.79,1320.95,1596.53,1320.95z M1701.03,1152.66
					c0.09,37.24-11.14,72.13-31.63,98.25c-19.63,25.02-45.44,38.84-72.67,38.9c-0.06,0-0.13,0-0.19,0
					c-57.61,0-104.58-61.24-104.77-136.65c-0.18-75.48,46.6-137.01,104.3-137.15c0.06,0,0.13,0,0.19,0
					C1653.86,1016.02,1700.84,1077.26,1701.03,1152.66L1701.03,1152.66z"/>
			</g>
			<g>
				
					<ellipse transform="matrix(1 -2.438947e-03 2.438947e-03 1 -2.8432 3.849)" class="st0" cx="1576.74" cy="1167.67" rx="96.3" ry="124.47"/>
			</g>
			<g>
				
					<ellipse transform="matrix(1 -2.436470e-03 2.436470e-03 1 -2.7371 3.8997)" class="st0" cx="1599.19" cy="1125.32" rx="22.56" ry="33.03"/>
			</g>
			<g>
				<path class="st0" d="M1192.95,1341.74c0,21.59,6.36,38.87,16.61,51.85c30.77,39.13,96.46,39.13,127.23,0
					c10.26-12.97,16.62-30.26,16.62-51.85c-31.13-6.26-58.41-17.69-80.26-36.36C1250.54,1325.69,1224.75,1339.74,1192.95,1341.74z"
					/>
			</g>
			<g>
				<path class="st0" d="M1209.57,1393.59c30.77,39.13,96.46,39.13,127.23,0C1306.08,1354.36,1240.29,1354.36,1209.57,1393.59z"/>
			</g>
			<g>
				<path class="st0" d="M1273.16,1440.87c25.46,0,49.31-8.84,67.16-24.89c14.15-12.73,31.02-35.93,31.02-74.22h-35.9
					c0,43.67-31.28,63.21-62.28,63.21c-31,0-62.28-19.54-62.28-63.21h-35.9C1174.98,1406.83,1224.37,1440.87,1273.16,1440.87z"/>
			</g>
			<g>
				<path class="st0" d="M685.94,798.12c4.34,0,8.61-1.57,11.97-4.57c60.27-53.93,123.64-98.64,188.37-132.89
					c4.24-2.25,7.41-6.1,8.79-10.7c1.39-4.6,0.87-9.56-1.43-13.77c-32.45-59.41-74.29-115.38-103.67-151.87
					c-11.54-14.39-29.91-20.79-47.94-16.7c-18.05,4.1-31.87,17.85-36.08,35.87c-15.72,67.17-35.06,169.62-37.95,276.16
					c0,0.16-0.01,0.37-0.01,0.53c0,7.08,4.16,13.5,10.62,16.38C680.97,797.61,683.47,798.12,685.94,798.12z M853.31,637.72
					c-50.36,28.05-99.79,62.12-147.49,101.66c5.83-88.2,21.79-170.86,35.1-227.72c1.55-6.65,6.86-8.53,9.08-9.04
					c2.21-0.5,7.77-1.09,12.01,4.19C787.86,538.92,823.61,586.5,853.31,637.72z"/>
			</g>
			<g>
				<path class="st0" d="M1244.91,1734.06c215.64,0,401.99-46.08,538.91-133.25c149.26-95.04,228.16-233.11,228.16-399.31
					c0-68.18-13.63-136.32-40.52-202.61c-24.38-211.7-51.98-416.96-116.83-602.3c-14.83-42.34-47.75-74.49-90.33-88.23
					c-42.24-13.61-87.3-6.85-123.65,18.54c-88.62,61.95-180.57,152.39-236.92,232.65c-106.73-21.5-217.95-22.5-323.9-2.92
					c-56.51-79.53-147.3-168.52-234.85-229.73c-36.37-25.41-81.45-32.16-123.66-18.54c-42.57,13.73-75.49,45.88-90.32,88.21
					c-65.56,187.37-93.05,395.14-117.64,609.31c-0.01,0.13-0.02,0.26-0.04,0.38c-23.51,63.66-35.42,129.32-35.42,195.23
					c0,166.19,78.89,304.27,228.13,399.3C842.93,1687.98,1029.27,1734.06,1244.91,1734.06z M1936.34,1021.62
					c22.97,59.05,34.61,119.52,34.61,179.88c0,151.46-72.33,277.57-209.17,364.7c-128.46,81.79-312.02,126.84-516.87,126.84
					c-204.85,0-388.4-45.04-516.85-126.83c-136.82-87.13-209.14-213.23-209.14-364.7c0-62.64,11.65-125.1,34.62-185.64
					c1.26-3.33,1.6-6.8,1.14-10.12c24.17-210.07,51.37-413.62,115.05-595.61c10.54-30.1,33.94-52.96,64.18-62.72
					c29.9-9.65,61.83-4.87,87.57,13.13c87.9,61.44,179.02,151.83,232.14,230.27c4.64,6.85,12.97,10.23,21.04,8.61
					c109.49-22.1,225.52-20.89,335.93,3.51c6.05,1.35,12.41-0.14,17.26-4.03c4.03-3.23,6.67-7.85,7.44-12.88
					c53.55-77.31,142.75-165.28,228.86-225.48c25.74-17.98,57.65-22.77,87.56-13.12c30.25,9.75,53.65,32.62,64.2,62.73
					c63.62,181.84,90.83,385.19,114.98,595.06c0.04,0.74,0.13,1.49,0.25,2.23c0.12,1.05,0.24,2.09,0.36,3.13
					C1931.99,1014.81,1933.74,1018.61,1936.34,1021.62z"/>
			</g>
			<g>
				<path class="st0" d="M1799.68,798.12c2.97,0,5.94-0.73,8.65-2.23c6.35-3.5,9.97-10.47,9.18-17.68
					c-0.95-8.67-23.42-213.02-37.85-274.74c-4.22-18.02-18.04-31.77-36.09-35.86c-18.01-4.09-36.39,2.31-47.95,16.72
					c-29.37,36.49-71.22,92.47-103.65,151.86c-4.61,8.45-1.74,19.03,6.51,23.99c59.83,35.95,121.98,79.8,190,134.04
					C1791.74,796.8,1795.7,798.12,1799.68,798.12z M1732.81,502.3c1.16,0,2.15,0.16,2.82,0.31c2.21,0.51,7.53,2.39,9.08,9.03
					c10.04,42.95,24.76,163.23,32.29,227.97c-50.85-39.08-98.71-72.42-145.14-101.13c29.77-51.49,65.75-99.39,91.74-131.66
					C1726.56,503.14,1730.15,502.3,1732.81,502.3z"/>
			</g>
			<g class="st3">
				<path class="st0" d="M1170.85,638.28c-91.2,14.54-165.04,41.73-217.73,84.37c-18.68,15.12-11.33,45.33,12.13,50.53
					c105.43,23.4,186.88-1.78,235.8-92.92C1212.3,659.32,1194.33,634.54,1170.85,638.28z"/>
			</g>
			<g class="st3">
				<path class="st0" d="M838.2,869.59c-17.05-12.84-16.55-42.26,1.11-65.72c17.66-23.46,45.8-32.07,62.85-19.23
					c17.05,12.84,6.02,34.33-11.65,57.79C872.86,865.89,855.25,882.43,838.2,869.59z"/>
			</g>
		</g>
	</g>
	<g>
		<g>
			<path class="st0" d="M58.4,1643.97c3.83,30.44,33.32,53.56,65.86,51.58c10.6-0.66,20.26-3.83,28.22-8.94
				c16.65-10.54,26.37-29.17,23.77-49.71c-8.83-69.88,17.9-140.47,68.8-189.87c14.59-14.17,31.13-26.58,49.43-36.73
				c36.63-20.39,110.53-47.12,193.33,2.52c134.23,80.39,97.51,195.33-73.1,478.66c-58.08,96.47-69.88,182.8-35.14,256.66
				c30,63.68,87.49,100.14,127.35,118.85c23.66,11.05,41.09,15.87,42.94,16.34c31.89,8.55,63.83-8.27,71.32-37.55
				c7.46-29.19-12.17-59.72-43.9-68.42c-2.04-0.58-66.76-19.88-89.72-69.62c-9.89-21.56-10.41-45.75-5.56-69.89
				c6.3-31.57,21.7-63.09,37-88.46c75.95-126.12,140.46-238.75,161.29-339.74c25.54-123.86-18.97-221.02-132.15-288.88
				c-100.82-60.42-216.89-62.63-318.44-6.17c-9.59,5.35-18.85,11.12-27.84,17.24C100.15,1402.04,43.24,1523.67,58.4,1643.97z"/>
		</g>
		<g class="st1">
			<path class="st0" d="M152.48,1686.61c16.65-10.54,26.37-29.17,23.77-49.71c-8.83-69.88,17.9-140.47,68.8-189.87
				c14.59-14.17,31.13-26.58,49.43-36.73c36.63-20.39,110.53-47.12,193.33,2.52c134.23,80.39,97.51,195.33-73.1,478.66
				c-58.08,96.47-69.88,182.8-35.14,256.66c30,63.68,87.49,100.14,127.35,118.85c23.66,11.05,41.09,15.87,42.94,16.34
				c31.89,8.55,63.83-8.27,71.32-37.55c7.46-29.19-12.17-59.72-43.9-68.42c-2.04-0.58-66.76-19.88-89.72-69.62
				c-9.89-21.56-10.41-45.75-5.56-69.89c-4.98-0.98-10.78-1.69-16.9-1.62c-27.21,0.34-47.77-24.97-38.89-48.51
				c5.46-14.47,13.72-31.94,25.9-53.01c58.22-100.83,323.2-438.72,35.65-570.32C236.16,1249.25,38.28,1538.53,152.48,1686.61z"/>
		</g>
		<g>
			<path class="st0" d="M534.04,2299.29c6.17,2.06,10.07,3.12,10.96,3.35c43.38,11.61,87-11.38,97.17-51.27
				c10.1-39.59-16.6-81.42-59.78-93.29c-0.26-0.09-56.36-16.91-75.05-57.44c-15.13-32.82-4.27-82.8,30.6-140.71
				c76.83-127.6,142.16-241.67,163.55-345.5c27.39-132.95-20.5-237.37-142.36-310.38c-108.14-64.8-232.5-67.3-341.22-6.86
				c-125.67,69.87-198.39,209.73-180.94,348.03c2.53,20.09,13.27,38.47,30.24,51.76c16.97,13.3,38.14,19.91,59.61,18.63
				c44.31-2.66,76.1-38.55,70.86-80.02c-10.41-82.46,33.22-166.01,108.57-207.9c32.45-18.04,97.76-41.8,170.59,1.83
				c111.34,66.71,94.68,159.53-81.07,451.44c-61.45,102.06-73.52,194.37-35.87,274.38c32.32,68.67,92.99,108.31,138.19,129.48l0,0
				C512.96,2291.8,525.61,2296.48,534.04,2299.29z M574.18,2197.19c19.05,6.36,30.51,25.14,25.97,42.94
				c-4.75,18.61-25.1,29.34-45.38,23.91c-0.22-0.06-16.6-4.45-38.98-14.93l0,0c-38.37-17.97-89.74-51.34-116.52-108.22
				c-31.85-67.69-20.28-148.05,34.4-238.87c81.17-134.83,138.28-241.11,153.16-321.55c15.16-81.96-12-138.83-88.06-184.4
				c-92.9-55.67-175.26-25.87-216.09-3.17c-88.77,49.35-140.15,147.92-127.87,245.27c2.44,19.35-12.39,36.1-33.07,37.34
				c-10.02,0.6-19.9-2.48-27.82-8.69c-7.91-6.2-12.93-14.78-14.11-24.16c-15.57-123.41,49.39-248.25,161.64-310.66
				c94.46-52.52,202.25-50.49,295.72,5.51c106.01,63.52,145.88,150.96,121.9,267.34c-20.22,98.18-84,209.36-159.06,334.03
				c-29.28,48.62-58.63,118.61-32.21,175.93c27.24,59.05,101.02,80.83,104.16,81.71C572.72,2196.73,573.46,2196.95,574.18,2197.19z"
				/>
		</g>
	</g>
	<circle class="st0" cx="2230.12" cy="743.59" r="216.95"/>
</g>
</svg>
