<svg xmlns="http://www.w3.org/2000/svg" width="19.938" height="13.957" viewBox="0 0 19.938 13.957">
  <path id="Path_3880" data-name="Path 3880" d="M316.893,435.287a4.376,4.376,0,0,0-4.375-4.375H301.33a4.376,4.376,0,0,0-4.375,4.375v5.206a4.376,4.376,0,0,0,4.375,4.375h11.188a4.376,4.376,0,0,0,4.375-4.375Zm-6.579,2.993-5.017,2.482c-.2.106-.865-.036-.865-.259v-5.095c0-.227.674-.369.871-.257l4.8,2.612C310.306,437.879,310.518,438.171,310.314,438.281Z" transform="translate(-296.955 -430.912)" fill="#fff"/>
</svg>
